<svg viewBox="0 0 914.795 610.134" fill="none" stroke-linecap="square" stroke-miterlimit="10" xmlns="http://www.w3.org/2000/svg" data-ember-extension="1"><clipPath id="a"><path d="M0 0h914.795v610.134H0V0z"/></clipPath><g clip-path="url(#a)"><path fill="#fff" d="M0 0h914.795v610.134H0z" fill-rule="evenodd"/><path fill="none" d="M350.197 201.766l-.441 331.15"/><path stroke="#000" stroke-linejoin="round" stroke-linecap="butt" d="M350.197 201.766l-.441 331.15"/><path fill="none" d="M291.598 30.84h117.733v34.677H291.598z"/><path fill="#000" d="M318.41 54.038h-2.516l-1-2.609h-4.578l-.953 2.61h-2.453l4.469-11.454h2.437l4.594 11.453zm-4.266-4.53l-1.578-4.25-1.547 4.25h3.125zm5.414-3.766h2.047v1.218q.39-.625 1.063-1.015.687-.39 1.515-.39 1.453 0 2.453 1.14 1.016 1.125 1.016 3.14 0 2.078-1.016 3.235-1.015 1.156-2.468 1.156-.688 0-1.25-.266-.547-.28-1.172-.953v4.188h-2.188V45.742zm2.172 4q0 1.406.547 2.078.562.656 1.36.656.765 0 1.265-.61.516-.609.516-2.015 0-1.297-.532-1.922-.515-.64-1.297-.64-.796 0-1.328.624-.53.61-.53 1.829zm7.602-4h2.047v1.218q.39-.625 1.062-1.015.688-.39 1.516-.39 1.453 0 2.453 1.14 1.015 1.125 1.015 3.14 0 2.078-1.015 3.235-1.016 1.156-2.469 1.156-.687 0-1.25-.266-.547-.28-1.172-.953v4.188h-2.187V45.742zm2.172 4q0 1.406.546 2.078.563.656 1.36.656.765 0 1.265-.61.516-.609.516-2.015 0-1.297-.531-1.922-.516-.64-1.297-.64-.797 0-1.328.624-.531.61-.531 1.829zm7.664 4.296V42.585h2.187v11.453h-2.187zm4.445-9.421v-2.032h2.187v2.032h-2.187zm0 9.421v-8.296h2.187v8.296h-2.187zm11.68-5.843l-2.172.39q-.11-.656-.5-.984-.375-.328-1-.328-.813 0-1.313.578-.484.562-.484 1.89 0 1.47.5 2.079.5.61 1.328.61.625 0 1.016-.345.406-.359.578-1.234l2.156.375q-.344 1.484-1.297 2.25-.953.75-2.547.75-1.828 0-2.906-1.14-1.078-1.157-1.078-3.188 0-2.063 1.078-3.203 1.094-1.14 2.937-1.14 1.516 0 2.407.655.906.641 1.297 1.985zm3.304.078l-2-.36q.344-1.203 1.157-1.78.828-.579 2.437-.579 1.469 0 2.188.344.718.344 1.015.89.297.532.297 1.954l-.031 2.562q0 1.094.11 1.625.109.516.39 1.11h-2.172q-.078-.22-.203-.657-.063-.187-.078-.25-.563.547-1.203.828-.641.266-1.375.266-1.282 0-2.016-.688-.734-.703-.734-1.765 0-.703.328-1.25.343-.563.937-.844.61-.297 1.75-.516 1.547-.296 2.14-.546v-.22q0-.624-.312-.89-.312-.281-1.187-.281-.578 0-.906.234-.329.235-.532.813zm2.938 1.781q-.422.14-1.344.344-.906.187-1.187.375-.438.297-.438.765 0 .47.344.813.344.328.875.328.594 0 1.14-.39.391-.297.516-.735.094-.281.094-1.062v-.438zm8.117-4.312v1.75h-1.5v3.343q0 1.016.047 1.188.047.156.187.265.157.11.375.11.313 0 .89-.203l.188 1.703q-.765.328-1.734.328-.594 0-1.078-.203-.469-.203-.703-.516-.219-.312-.297-.86-.078-.374-.078-1.546v-3.61h-1v-1.75h1v-1.656l2.203-1.28v2.937h1.5zm1.531-1.125v-2.032h2.188v2.032h-2.188zm0 9.421v-8.296h2.188v8.296h-2.188zm3.93-4.265q0-1.094.531-2.11.547-1.03 1.531-1.562 1-.547 2.22-.547 1.874 0 3.077 1.219 1.203 1.219 1.203 3.094 0 1.875-1.218 3.125-1.203 1.234-3.047 1.234-1.14 0-2.188-.516-1.031-.515-1.578-1.515-.531-1-.531-2.422zm2.25.11q0 1.234.578 1.89.594.656 1.453.656.86 0 1.438-.656.593-.656.593-1.906 0-1.22-.593-1.875-.578-.657-1.438-.657t-1.453.657q-.578.656-.578 1.89zm15.586 4.155h-2.203v-4.234q0-1.344-.14-1.734-.142-.407-.454-.625-.313-.219-.766-.219-.562 0-1.015.312-.453.313-.625.829-.172.515-.172 1.906v3.765h-2.188v-8.296h2.032v1.218q1.093-1.406 2.734-1.406.734 0 1.328.266.61.25.906.656.313.406.438.922.125.515.125 1.484v5.156z"/><path fill="none" d="M709.9 32.87h117.733v34.678H709.9z"/><path fill="#000" d="M736.712 46.569h-2.516l-1-2.61h-4.578l-.953 2.61h-2.453l4.468-11.453h2.438l4.594 11.453zm-4.266-4.531l-1.578-4.25-1.547 4.25h3.125zm5.414-3.766h2.047v1.219q.39-.625 1.063-1.016.687-.39 1.515-.39 1.453 0 2.453 1.14 1.016 1.125 1.016 3.14 0 2.079-1.016 3.235-1.015 1.157-2.468 1.157-.688 0-1.25-.266-.547-.281-1.172-.953v4.187h-2.188V38.272zm2.172 4q0 1.406.547 2.078.562.657 1.36.657.765 0 1.265-.61.516-.61.516-2.015 0-1.297-.532-1.922-.515-.641-1.297-.641-.796 0-1.328.625-.531.61-.531 1.828zm7.602-4h2.046v1.219q.391-.625 1.063-1.016.687-.39 1.516-.39 1.453 0 2.453 1.14 1.015 1.125 1.015 3.14 0 2.079-1.015 3.235-1.016 1.157-2.469 1.157-.688 0-1.25-.266-.547-.281-1.172-.953v4.187h-2.187V38.272zm2.171 4q0 1.406.547 2.078.563.657 1.36.657.765 0 1.265-.61.516-.61.516-2.015 0-1.297-.531-1.922-.516-.641-1.297-.641-.797 0-1.328.625-.532.61-.532 1.828zm7.665 4.297V35.116h2.187v11.453h-2.187zm4.445-9.422v-2.031h2.187v2.031h-2.187zm0 9.422v-8.297h2.187v8.297h-2.187zm11.68-5.844l-2.172.39q-.11-.655-.5-.983-.375-.329-1-.329-.813 0-1.313.579-.484.562-.484 1.89 0 1.469.5 2.078.5.61 1.328.61.625 0 1.016-.344.406-.36.578-1.234l2.156.375q-.344 1.484-1.297 2.25-.953.75-2.547.75-1.828 0-2.906-1.141-1.078-1.156-1.078-3.188 0-2.062 1.078-3.203 1.094-1.14 2.937-1.14 1.516 0 2.407.656.906.64 1.297 1.984zm3.304.078l-2-.359q.344-1.203 1.156-1.781.829-.578 2.438-.578 1.469 0 2.187.343.72.344 1.016.891.297.531.297 1.953l-.031 2.563q0 1.093.11 1.625.108.515.39 1.109h-2.172q-.078-.219-.203-.656-.063-.188-.078-.25-.563.547-1.204.828-.64.266-1.375.266-1.28 0-2.015-.688-.735-.703-.735-1.766 0-.703.329-1.25.343-.562.937-.843.61-.297 1.75-.516 1.547-.297 2.14-.547v-.219q0-.625-.312-.89-.312-.281-1.187-.281-.578 0-.907.234-.328.234-.53.812zm2.938 1.782q-.422.14-1.344.343-.906.188-1.188.375-.437.297-.437.766 0 .469.344.813.343.328.875.328.593 0 1.14-.391.391-.297.516-.734.094-.282.094-1.063v-.437zm8.117-4.313v1.75h-1.5v3.344q0 1.016.047 1.187.047.157.187.266.157.11.375.11.313 0 .89-.204l.188 1.703q-.765.329-1.734.329-.594 0-1.078-.204-.469-.203-.703-.515-.219-.313-.297-.86-.078-.375-.078-1.546v-3.61h-1v-1.75h1v-1.656l2.203-1.281v2.937h1.5zm1.531-1.125v-2.031h2.188v2.031h-2.188zm0 9.422v-8.297h2.188v8.297h-2.188zm3.93-4.266q0-1.093.531-2.109.547-1.031 1.531-1.562 1-.547 2.22-.547 1.874 0 3.077 1.218 1.203 1.22 1.203 3.094 0 1.875-1.218 3.125-1.204 1.235-3.047 1.235-1.14 0-2.188-.516-1.031-.516-1.578-1.516-.531-1-.531-2.422zm2.25.11q0 1.234.578 1.89.594.657 1.453.657.86 0 1.438-.657.593-.656.593-1.906 0-1.219-.593-1.875-.579-.656-1.438-.656-.86 0-1.453.656-.578.656-.578 1.89zm15.586 4.156h-2.203v-4.234q0-1.344-.141-1.735-.14-.406-.453-.625-.313-.218-.766-.218-.562 0-1.015.312-.453.313-.625.828-.172.516-.172 1.906v3.766h-2.188v-8.297h2.032v1.219q1.093-1.406 2.734-1.406.734 0 1.328.265.61.25.906.657.313.406.438.921.125.516.125 1.485v5.156zM745.118 63.194l2.203-.328q.14.64.563.969.437.328 1.218.328.844 0 1.282-.313.28-.218.28-.578 0-.25-.155-.422-.157-.156-.735-.281-2.656-.594-3.36-1.078-.983-.672-.983-1.86 0-1.078.843-1.812.86-.734 2.64-.734 1.704 0 2.532.562.828.547 1.14 1.625l-2.062.39q-.14-.484-.515-.734-.36-.265-1.047-.265-.875 0-1.25.234-.25.172-.25.453 0 .235.219.39.296.22 2.046.626 1.766.39 2.454.969.687.593.687 1.64 0 1.14-.953 1.969-.953.813-2.813.813-1.703 0-2.687-.688-.984-.687-1.297-1.875zm14.477-.266l2.187.36q-.422 1.203-1.328 1.844-.906.625-2.281.625-2.157 0-3.203-1.422-.813-1.125-.813-2.86 0-2.062 1.078-3.218 1.078-1.172 2.719-1.172 1.86 0 2.922 1.218 1.078 1.22 1.031 3.75h-5.5q.016.97.516 1.516.515.547 1.28.547.517 0 .86-.281.36-.282.532-.907zm.125-2.218q-.016-.953-.485-1.453-.469-.5-1.14-.5-.72 0-1.188.53-.469.516-.469 1.423h3.282zm6.07 4.859h-2.188v-8.297h2.032v1.172q.53-.828.937-1.094.422-.265.953-.265.75 0 1.453.406l-.687 1.922q-.547-.36-1.031-.36-.453 0-.782.25-.312.25-.5.922-.187.657-.187 2.782v2.562zm6.414 0l-3.344-8.297h2.297l1.563 4.235.453 1.406q.187-.531.234-.703.11-.36.234-.703l1.579-4.235h2.25l-3.297 8.297h-1.97zm11.414-2.64l2.188.359q-.422 1.203-1.329 1.844-.906.625-2.28.625-2.157 0-3.204-1.422-.813-1.125-.813-2.86 0-2.062 1.079-3.218 1.078-1.172 2.718-1.172 1.86 0 2.922 1.218 1.078 1.22 1.032 3.75h-5.5q.015.97.515 1.516.516.547 1.281.547.516 0 .86-.281.36-.282.531-.907zm.125-2.22q-.016-.952-.484-1.452-.47-.5-1.141-.5-.719 0-1.188.53-.468.516-.468 1.423h3.281zm6.07 4.86h-2.187v-8.297h2.031v1.172q.531-.828.938-1.094.421-.265.953-.265.75 0 1.453.406l-.688 1.922q-.547-.36-1.03-.36-.454 0-.782.25-.313.25-.5.922-.188.657-.188 2.782v2.562z"/><path fill="none" d="M168.78 89.517h154.803v20.976H168.78z"/><path fill="#000" d="M231.842 101.712l1.875-.094q.031.89.297 1.203.437.5 1.594.5.968 0 1.39-.344.438-.344.438-.828 0-.422-.36-.719-.25-.203-1.359-.687-1.11-.485-1.625-.797-.5-.328-.797-.844-.297-.516-.297-1.203 0-1.203.875-2 .875-.797 2.531-.797 1.672 0 2.594.797.922.781 1.016 2.094l-1.89.078q-.063-.688-.485-1.047-.422-.36-1.25-.36-.813 0-1.172.282-.344.281-.344.719 0 .406.328.671.313.282 1.407.75 1.64.72 2.093 1.157.672.656.672 1.672 0 1.265-1 2.156-1 .89-2.781.89-1.234 0-2.14-.406-.891-.406-1.266-1.14-.375-.75-.344-1.704zm9.046-2.438l.281-1.375h.922l.219-1.11 2.14-1.296-.5 2.406h1.141l-.281 1.375h-1.14l-.61 2.906q-.172.781-.172.89 0 .22.14.345.141.109.5.109.126 0 .61-.047l-.281 1.39q-.485.094-1 .094-.985 0-1.438-.374-.437-.376-.437-1.063 0-.313.234-1.469l.578-2.781h-.906zm6.61.578l-1.828-.156q.313-.922 1.094-1.438.781-.53 2.062-.53 1.328 0 1.97.546.64.531.64 1.313 0 .312-.063.671-.047.344-.375 1.829-.281 1.234-.281 1.734 0 .437.156.984h-1.812q-.11-.375-.14-.781-.407.453-.938.703-.532.234-1.079.234-.859 0-1.421-.562-.563-.563-.563-1.438 0-1 .61-1.578.624-.593 2.203-.718 1.343-.11 1.78-.266.126-.39.126-.625 0-.313-.25-.5-.235-.203-.703-.203-.5 0-.797.203-.281.203-.39.578zm1.781 1.734q-.171.047-.453.079-1.406.171-1.843.5-.297.234-.297.625 0 .328.234.562.234.219.61.219.421 0 .796-.203.375-.203.563-.531.187-.329.328-1l.062-.25zm4.335-3.687h1.75l-.281 1.328q.968-1.5 2.109-1.5.406 0 .86.203l-.704 1.531q-.265-.093-.547-.093-.484 0-.984.375-.5.36-.781.969-.266.609-.547 1.921l-.453 2.172h-1.875l1.453-6.906zm4.312 1.375l.28-1.375h.923l.218-1.11 2.141-1.296-.5 2.406h1.14l-.28 1.375h-1.141l-.61 2.906q-.171.781-.171.89 0 .22.14.345.14.109.5.109.125 0 .61-.047l-.282 1.39q-.484.094-1 .094-.984 0-1.437-.374-.438-.376-.438-1.063 0-.313.235-1.469l.578-2.781h-.906z"/><path fill="#f90" d="M343.74 201.766h12.914v84.19H343.74z" fill-rule="evenodd"/><path stroke="#000" stroke-linejoin="round" stroke-linecap="butt" d="M343.74 201.766h12.914v84.19H343.74z"/><path fill="none" d="M160.262 199.163h189.48"/><path stroke="#000" stroke-linejoin="round" stroke-linecap="butt" d="M160.262 199.163h183.48"/><path fill="#000" stroke="#000" stroke-linecap="butt" d="M343.743 200.814l4.538-1.651-4.538-1.652z" fill-rule="evenodd"/><path fill="none" d="M176.717 172.428H331.52v20.976H176.717z"/><path fill="#000" d="M192.53 187.716l2-9.547h1.968l-1.672 7.953h4.86l-.329 1.594h-6.828zm8.36-2.875q0-1.922 1.077-3.063 1.078-1.14 2.844-1.14 1.531 0 2.39.844.86.843.86 2.265 0 1.688-1.078 2.906-1.063 1.22-2.875 1.22-.969 0-1.734-.391-.75-.391-1.125-1.094-.36-.719-.36-1.547zm5.312-1.328q0-.672-.39-1.063-.376-.406-.985-.406-.61 0-1.078.375-.47.375-.735 1.094-.25.703-.25 1.312 0 .735.39 1.172.407.438 1.016.438.782 0 1.297-.656.735-.938.735-2.266zm2.454 4.562l1.968.297q0 .297.094.438.11.156.328.265.219.11.594.11.594 0 .937-.235.282-.187.438-.578.11-.265.266-1.11l.078-.327q-.97.812-2.016.812-1.016 0-1.672-.719-.64-.718-.64-2.093 0-1.219.437-2.235.453-1.015 1.25-1.53.797-.532 1.625-.532.703 0 1.266.375.578.36.89 1.016l.266-1.22h1.75l-1.203 5.75q-.281 1.391-.485 1.985-.203.594-.468.938-.25.359-.657.593-.39.235-.937.344-.531.11-1.172.11-1.469 0-2.219-.516-.734-.5-.734-1.656 0-.125.016-.282zm2.203-3.328q0 .781.343 1.203.36.407.891.407.484 0 .938-.375.468-.375.703-1.047.25-.688.25-1.328 0-.735-.391-1.172-.39-.453-.922-.453-.5 0-.922.39-.406.39-.687 1.219-.203.64-.203 1.156zm8.032-6.578h1.859l-.344 1.703h-1.875l.36-1.703zm-.547 2.64h1.86l-1.438 6.907h-1.875l1.453-6.906zm3.718 0h1.782l-.188.891q.656-.578 1.235-.812.578-.25 1.218-.25.844 0 1.328.5.5.484.5 1.281 0 .375-.203 1.39l-.812 3.907h-1.875l.828-3.922q.172-.875.172-1.047 0-.36-.219-.562-.203-.203-.578-.203-.406 0-.906.343-.5.344-.797.907-.203.406-.469 1.64l-.594 2.844h-1.86l1.438-6.906zM234.047 190.529q-1.015-2.25-1.015-4.61 0-1.578.406-2.922.422-1.36 1.266-2.687.562-.89 1.796-2.297h.907q-.75.812-1.61 2.297-.843 1.469-1.234 2.906-.375 1.422-.375 2.86 0 2.14.75 4.453h-.89zm2.954-5.438q0-2.016 1.188-3.344.984-1.094 2.578-1.094 1.25 0 2.016.782.765.781.765 2.11 0 1.187-.484 2.218-.485 1.016-1.375 1.562-.89.547-1.875.547-.797 0-1.469-.344-.656-.343-1-.968-.344-.64-.344-1.469zm1.172-.11q0 .97.469 1.485.469.5 1.187.5.375 0 .75-.156t.688-.469q.328-.313.547-.703.219-.406.36-.875.202-.64.202-1.234 0-.938-.468-1.454-.47-.515-1.188-.515-.562 0-1.016.265-.453.266-.828.782-.359.5-.53 1.172-.173.671-.173 1.203zm6.022 2.735l1.453-6.906h1.031l-.28 1.406q.53-.797 1.03-1.172.516-.39 1.047-.39.36 0 .875.25l-.484 1.093q-.313-.219-.672-.219-.625 0-1.281.688-.64.688-1.016 2.484l-.578 2.766h-1.125zM255.07 182.763l-1.827-.156q.312-.922 1.093-1.438.782-.531 2.063-.531 1.328 0 1.969.547.64.531.64 1.312 0 .313-.062.672-.047.344-.375 1.828-.281 1.235-.281 1.735 0 .437.156.984h-1.813q-.11-.375-.14-.781-.407.453-.938.703-.531.234-1.078.234-.86 0-1.422-.562-.562-.563-.562-1.438 0-1 .609-1.578.625-.594 2.203-.719 1.344-.109 1.781-.265.125-.39.125-.625 0-.313-.25-.5-.234-.203-.703-.203-.5 0-.797.203-.28.203-.39.578zm1.782 1.734q-.172.047-.453.078-1.406.172-1.844.5-.297.235-.297.625 0 .329.235.563.234.219.609.219.422 0 .797-.203.375-.204.562-.532.188-.328.329-1l.062-.25zm4.428-3.687h1.86l-.844 4.094q-.156.734-.156.906 0 .312.218.531.219.203.563.203.25 0 .484-.094.25-.093.5-.28.25-.204.453-.438.203-.25.375-.657.125-.296.266-.984l.703-3.281h1.86l-1.438 6.906h-1.75l.203-.937q-1.156 1.093-2.5 1.093-.86 0-1.344-.484-.484-.484-.484-1.313 0-.343.219-1.421l.812-3.844zm7.173 1.375l.281-1.375h.922l.219-1.11 2.14-1.296-.5 2.406h1.14l-.28 1.375h-1.141l-.61 2.906q-.171.781-.171.89 0 .22.14.344.141.11.5.11.125 0 .61-.047l-.281 1.39q-.485.094-1 .094-.985 0-1.438-.375-.437-.375-.437-1.062 0-.313.234-1.469l.578-2.781h-.906zm4.25 2.656q0-1.922 1.079-3.062 1.078-1.141 2.843-1.141 1.532 0 2.391.844.86.843.86 2.265 0 1.688-1.079 2.907-1.062 1.218-2.875 1.218-.968 0-1.734-.39-.75-.391-1.125-1.094-.36-.719-.36-1.547zm5.313-1.328q0-.672-.39-1.063-.376-.406-.985-.406-.61 0-1.078.375-.469.375-.734 1.094-.25.703-.25 1.312 0 .735.39 1.172.406.438 1.016.438.781 0 1.297-.656.734-.938.734-2.266zm2.532 4.203l2-9.547h1.86l-1.985 9.547h-1.875zm4-2.875q0-1.922 1.078-3.062 1.078-1.141 2.844-1.141 1.531 0 2.39.844.86.843.86 2.265 0 1.688-1.078 2.907-1.063 1.218-2.875 1.218-.969 0-1.735-.39-.75-.391-1.125-1.094-.359-.719-.359-1.547zm5.312-1.328q0-.672-.39-1.063-.375-.406-.985-.406-.609 0-1.078.375-.468.375-.734 1.094-.25.703-.25 1.312 0 .735.39 1.172.407.438 1.016.438.781 0 1.297-.656.734-.938.734-2.266zm2.454 4.562l1.97.297q0 .297.093.438.11.156.328.265.219.11.594.11.593 0 .937-.235.281-.187.438-.578.11-.265.265-1.11l.078-.327q-.968.812-2.015.812-1.016 0-1.672-.718-.64-.72-.64-2.094 0-1.219.437-2.235.453-1.015 1.25-1.53.797-.532 1.625-.532.703 0 1.265.375.579.36.891 1.016l.266-1.22h1.75l-1.203 5.75q-.282 1.391-.485 1.985-.203.594-.469.938-.25.359-.656.593-.39.235-.937.344-.532.11-1.172.11-1.469 0-2.219-.516-.734-.5-.734-1.656 0-.125.015-.282zm2.203-3.328q0 .782.344 1.203.36.407.89.407.485 0 .938-.375.47-.375.703-1.047.25-.688.25-1.328 0-.735-.39-1.172-.39-.453-.922-.453-.5 0-.922.39-.406.39-.687 1.219-.204.64-.204 1.156zm8.032-6.578h1.86l-.344 1.703h-1.875l.36-1.703zm-.546 2.64h1.859l-1.438 6.907h-1.875l1.454-6.906zm3.718 0h1.781l-.187.891q.656-.578 1.234-.812.578-.25 1.219-.25.844 0 1.328.5.5.484.5 1.281 0 .375-.203 1.39l-.812 3.907h-1.875l.828-3.922q.172-.875.172-1.047 0-.36-.22-.562-.202-.203-.577-.203-.407 0-.907.343-.5.344-.796.907-.204.406-.47 1.64l-.593 2.844h-1.86l1.438-6.906zM314.503 178.013q1.031 2.234 1.031 4.594 0 1.578-.421 2.937-.407 1.36-1.25 2.688-.563.89-1.797 2.297h-.907q.75-.829 1.594-2.313.86-1.469 1.235-2.89.39-1.422.39-2.876 0-2.14-.75-4.437h.875z"/><path fill="none" d="M361.889 220.848h397.07"/><path stroke="#000" stroke-linejoin="round" stroke-linecap="butt" d="M361.889 220.848h391.07"/><path fill="#000" stroke="#000" stroke-linecap="butt" d="M752.96 222.5l4.538-1.652-4.538-1.652z" fill-rule="evenodd"/><path fill="none" d="M585.866 196.867H740.67v20.977H585.866z"/><path fill="#000" d="M645.727 212.156l2-9.547h1.97l-1.673 7.953h4.86l-.328 1.594h-6.829zm8.36-2.875q0-1.922 1.079-3.063 1.078-1.14 2.843-1.14 1.532 0 2.391.843.86.844.86 2.266 0 1.687-1.079 2.906-1.062 1.219-2.875 1.219-.968 0-1.734-.39-.75-.391-1.125-1.095-.36-.718-.36-1.546zm5.313-1.329q0-.671-.39-1.062-.376-.406-.985-.406-.61 0-1.078.375-.469.375-.734 1.093-.25.704-.25 1.313 0 .734.39 1.172.406.437 1.016.437.781 0 1.297-.656.734-.937.734-2.266zm2.454 4.563l1.969.297q0 .297.093.437.11.157.329.266.218.11.593.11.594 0 .938-.235.281-.188.437-.578.11-.266.266-1.11l.078-.328q-.969.813-2.016.813-1.015 0-1.671-.719-.641-.719-.641-2.094 0-1.218.437-2.234.454-1.016 1.25-1.531.797-.532 1.625-.532.704 0 1.266.375.578.36.89 1.016l.266-1.219h1.75L668.51 211q-.281 1.391-.484 1.985-.203.593-.469.937-.25.36-.656.594-.39.234-.938.344-.53.11-1.172.11-1.468 0-2.218-.517-.735-.5-.735-1.656 0-.125.016-.281zm2.203-3.328q0 .781.344 1.203.36.406.89.406.485 0 .938-.375.469-.375.703-1.047.25-.687.25-1.328 0-.734-.39-1.172-.391-.453-.922-.453-.5 0-.922.39-.407.391-.688 1.22-.203.64-.203 1.156zm8.032-6.578h1.86l-.344 1.703h-1.875l.36-1.703zm-.547 2.64h1.86l-1.438 6.907h-1.875l1.453-6.907zm3.719 0h1.781l-.187.891q.656-.578 1.234-.813.578-.25 1.219-.25.843 0 1.328.5.5.485.5 1.282 0 .375-.203 1.39l-.813 3.907h-1.875l.828-3.922q.172-.875.172-1.047 0-.36-.219-.563-.203-.203-.578-.203-.406 0-.906.344t-.797.906q-.203.406-.469 1.64l-.593 2.845h-1.86l1.438-6.907z"/><path fill="none" d="M179.042 433.67h154.803v20.976H179.042z"/><path fill="#000" d="M234.465 448.957l2-9.546h1.968l-1.671 7.953h4.859l-.328 1.594h-6.828zm8.36-2.875q0-1.921 1.078-3.062 1.078-1.14 2.844-1.14 1.531 0 2.39.843.86.844.86 2.266 0 1.687-1.078 2.906-1.063 1.219-2.875 1.219-.97 0-1.735-.39-.75-.392-1.125-1.095-.36-.718-.36-1.547zm5.312-1.328q0-.672-.39-1.062-.375-.406-.985-.406-.609 0-1.078.375-.469.375-.734 1.093-.25.703-.25 1.313 0 .734.39 1.172.407.437 1.016.437.781 0 1.297-.656.734-.938.734-2.266zm2.454 4.563l1.969.297q0 .297.094.437.11.156.328.266.219.11.594.11.593 0 .937-.235.281-.188.438-.578.109-.266.265-1.11l.078-.328q-.968.813-2.015.813-1.016 0-1.672-.719-.64-.719-.64-2.094 0-1.219.437-2.234.453-1.016 1.25-1.531.797-.532 1.625-.532.703 0 1.265.375.578.36.891 1.016l.266-1.219h1.75l-1.204 5.75q-.28 1.39-.484 1.985-.203.593-.469.937-.25.36-.656.594-.39.234-.937.344-.532.109-1.172.109-1.469 0-2.219-.516-.734-.5-.734-1.656 0-.125.015-.281zm2.203-3.328q0 .781.344 1.203.36.406.89.406.485 0 .938-.375.469-.375.703-1.047.25-.687.25-1.328 0-.734-.39-1.172-.39-.453-.922-.453-.5 0-.922.39-.406.391-.688 1.22-.203.64-.203 1.156zm6.314.094q0-1.922 1.078-3.063 1.078-1.14 2.843-1.14 1.532 0 2.391.843.86.844.86 2.266 0 1.687-1.079 2.906-1.062 1.219-2.875 1.219-.968 0-1.734-.39-.75-.392-1.125-1.095-.36-.718-.36-1.547zm5.312-1.329q0-.672-.39-1.062-.376-.406-.985-.406-.61 0-1.078.375-.469.375-.734 1.093-.25.703-.25 1.313 0 .734.39 1.172.406.437 1.016.437.781 0 1.297-.656.734-.938.734-2.266zm3.985-2.703h1.86l-.844 4.094q-.156.734-.156.906 0 .313.218.531.22.204.563.204.25 0 .484-.094.25-.094.5-.281.25-.204.453-.438.203-.25.375-.656.125-.297.266-.985l.703-3.28h1.86l-1.438 6.905h-1.75l.203-.937q-1.156 1.094-2.5 1.094-.86 0-1.344-.485-.484-.484-.484-1.312 0-.344.219-1.422l.812-3.844zm7.173 1.375l.281-1.375h.922l.219-1.11 2.14-1.296-.5 2.406h1.14l-.28 1.375h-1.141l-.61 2.906q-.171.782-.171.891 0 .219.14.344.141.11.5.11.125 0 .61-.048l-.281 1.391q-.485.094-1 .094-.985 0-1.438-.375-.437-.375-.437-1.063 0-.312.234-1.469l.578-2.78h-.906z"/><path fill="none" d="M360.535 514.787h404.913"/><path stroke="#000" stroke-linejoin="round" stroke-linecap="butt" d="M360.535 514.787h398.913"/><path fill="#000" stroke="#000" stroke-linecap="butt" d="M759.448 516.44l4.538-1.653-4.538-1.651z" fill-rule="evenodd"/><path fill="none" d="M589.36 489.885h154.803v20.976H589.36z"/><path fill="#000" d="M644.783 505.173l2-9.547h1.968l-1.672 7.954h4.86l-.328 1.593h-6.828zm8.36-2.875q0-1.922 1.078-3.062t2.844-1.14q1.53 0 2.39.843.86.844.86 2.265 0 1.688-1.079 2.907-1.062 1.219-2.875 1.219-.968 0-1.734-.391-.75-.39-1.125-1.094-.36-.719-.36-1.547zm5.312-1.328q0-.672-.39-1.062-.375-.407-.985-.407t-1.078.375q-.469.375-.734 1.094-.25.703-.25 1.313 0 .734.39 1.171.407.438 1.016.438.781 0 1.297-.656.734-.938.734-2.266zm2.454 4.563l1.969.296q0 .297.093.438.11.156.329.266.218.109.593.109.594 0 .938-.234.281-.188.437-.578.11-.266.266-1.11l.078-.328q-.969.813-2.016.813-1.015 0-1.671-.72-.641-.718-.641-2.093 0-1.219.437-2.234.454-1.016 1.25-1.532.797-.53 1.625-.53.704 0 1.266.374.578.36.89 1.016l.266-1.219h1.75l-1.203 5.75q-.281 1.39-.484 1.984-.203.594-.469.938-.25.36-.656.594-.39.234-.938.343-.53.11-1.172.11-1.468 0-2.218-.516-.735-.5-.735-1.656 0-.125.016-.281zm2.203-3.329q0 .782.344 1.204.36.406.89.406.485 0 .938-.375.469-.375.703-1.047.25-.688.25-1.328 0-.735-.39-1.172-.391-.453-.922-.453-.5 0-.922.39-.407.391-.688 1.22-.203.64-.203 1.156zm6.313.094q0-1.922 1.078-3.062 1.079-1.14 2.844-1.14 1.531 0 2.39.843.86.844.86 2.265 0 1.688-1.078 2.907-1.062 1.219-2.875 1.219-.969 0-1.734-.391-.75-.39-1.125-1.094-.36-.719-.36-1.547zm5.313-1.328q0-.672-.39-1.062-.376-.407-.985-.407-.61 0-1.078.375-.469.375-.735 1.094-.25.703-.25 1.313 0 .734.391 1.171.406.438 1.016.438.78 0 1.296-.656.735-.938.735-2.266zm3.985-2.703h1.86l-.844 4.094q-.157.734-.157.906 0 .313.22.531.218.203.562.203.25 0 .484-.093.25-.094.5-.282.25-.203.453-.437.203-.25.375-.656.125-.297.266-.985l.703-3.281h1.86l-1.438 6.906h-1.75l.203-.937q-1.156 1.094-2.5 1.094-.86 0-1.344-.485-.484-.484-.484-1.312 0-.344.218-1.422l.813-3.844zm7.173 1.375l.28-1.375h.923l.218-1.11 2.141-1.296-.5 2.406h1.14l-.28 1.375h-1.141l-.61 2.906q-.171.781-.171.89 0 .22.14.345.14.109.5.109.125 0 .61-.047l-.282 1.39q-.484.094-1 .094-.984 0-1.437-.375-.438-.375-.438-1.062 0-.313.235-1.469l.578-2.781h-.906z"/><path fill="none" d="M350.197 201.766l.252-136.252"/><path stroke="#000" stroke-linejoin="round" stroke-linecap="butt" stroke-dasharray="4.0,3.0" d="M350.197 201.766l.252-136.252"/><path fill="none" d="M767.278 566.685V83.157"/><path stroke="#000" stroke-linejoin="round" stroke-linecap="butt" stroke-dasharray="4.0,3.0" d="M767.278 566.685V83.157"/><path fill="#f90" d="M343.74 111.278h12.914v34.677H343.74z" fill-rule="evenodd"/><path stroke="#000" stroke-linejoin="round" stroke-linecap="butt" d="M343.74 111.278h12.914v34.677H343.74z"/><path fill="none" d="M350.197 575.924v-60.945"/><path stroke="#000" stroke-linejoin="round" stroke-linecap="butt" stroke-dasharray="4.0,3.0" d="M350.197 575.924v-60.945"/><path fill="#f90" d="M343.286 460.142H356.2v72.787h-12.913z" fill-rule="evenodd"/><path stroke="#000" stroke-linejoin="round" stroke-linecap="butt" d="M343.286 460.142H356.2v72.787h-12.913z"/><path fill="none" d="M158.042 532.939c-9.42 0-17.055-7.636-17.055-17.055V377.71c0-9.42-7.636-17.055-17.055-17.055 9.419 0 17.055-7.636 17.055-17.056V205.427c0-9.42 7.636-17.055 17.055-17.055z"/><path fill="none" d="M158.042 532.939c-9.42 0-17.055-7.636-17.055-17.055V377.71c0-9.42-7.636-17.055-17.055-17.055 9.419 0 17.055-7.636 17.055-17.056V205.427c0-9.42 7.636-17.055 17.055-17.055"/><path stroke="#000" stroke-linejoin="round" stroke-linecap="butt" d="M158.042 532.939c-9.42 0-17.055-7.636-17.055-17.055V377.71c0-9.42-7.636-17.055-17.055-17.055h0c9.419 0 17.055-7.636 17.055-17.056V205.427h0c0-9.42 7.636-17.055 17.055-17.055"/><path fill="none" d="M18.772 255.478h117.732v20.976H18.772z"/><path fill="#ff0" d="M46.143 249.966h62.99v16h-62.99v-16z"/><path fill="none" d="M46.143 250.7h62.99v15.326h-62.99V250.7z"/><path fill="#000" d="M46.58 262.766l1.454-6.906h1.03l-.28 1.406q.53-.797 1.03-1.172.516-.39 1.048-.39.359 0 .875.25l-.485 1.093q-.312-.219-.672-.219-.625 0-1.28.688-.641.687-1.016 2.484l-.579 2.766H46.58zm9.517-2.344l1.156.11q-.25.859-1.14 1.624-.891.766-2.125.766-.766 0-1.407-.344-.64-.359-.984-1.03-.328-.688-.328-1.548 0-1.14.515-2.203.532-1.062 1.36-1.578.844-.516 1.812-.516 1.235 0 1.969.766.75.766.75 2.094 0 .5-.094 1.047h-5.093q-.032.187-.032.359 0 .969.438 1.484.453.5 1.11.5.593 0 1.171-.39.594-.39.922-1.14zm-3.422-1.719h3.875q.016-.187.016-.265 0-.875-.453-1.344-.438-.484-1.125-.484-.766 0-1.391.53-.61.516-.922 1.563zm5.178 6.72l2-9.563h1.094l-.203.953q.593-.625 1.078-.86.484-.25 1.015-.25.985 0 1.625.72.657.718.657 2.062 0 1.078-.36 1.968-.343.875-.875 1.422-.515.547-1.047.797-.53.25-1.093.25-1.25 0-1.922-1.266l-.781 3.766h-1.188zm2.328-5.485q0 .781.11 1.078.171.422.53.687.376.25.876.25 1.015 0 1.64-1.14t.625-2.328q0-.875-.421-1.36-.422-.484-1.047-.484-.453 0-.844.25-.375.234-.703.703-.328.469-.547 1.156-.219.688-.219 1.188zm10.74.484l1.157.11q-.25.859-1.14 1.624-.891.766-2.126.766-.765 0-1.406-.344-.64-.359-.984-1.03-.328-.688-.328-1.548 0-1.14.515-2.203.532-1.062 1.36-1.578.843-.516 1.812-.516 1.235 0 1.969.766.75.766.75 2.094 0 .5-.094 1.047h-5.094q-.03.187-.03.359 0 .969.437 1.484.453.5 1.11.5.593 0 1.171-.39.594-.39.922-1.14zm-3.421-1.719h3.875q.016-.187.016-.265 0-.875-.454-1.344-.437-.484-1.125-.484-.765 0-1.39.53-.61.516-.922 1.563zm10.428 3.203q-.625.532-1.187.782-.563.234-1.204.234-.968 0-1.562-.562-.578-.563-.578-1.438 0-.578.265-1.016.266-.453.704-.718.437-.282 1.062-.39.406-.079 1.516-.126 1.11-.047 1.593-.234.125-.485.125-.813 0-.406-.296-.64-.407-.329-1.188-.329-.75 0-1.219.329-.468.328-.687.937l-1.188-.11q.36-1.015 1.14-1.562.798-.547 2-.547 1.282 0 2.032.61.578.453.578 1.187 0 .547-.156 1.281l-.39 1.72q-.188.812-.188 1.327 0 .328.156.938h-1.203q-.094-.344-.125-.86zm.422-2.64q-.234.094-.531.156-.282.047-.938.11-1.031.078-1.453.218-.422.14-.64.453-.22.297-.22.672 0 .5.344.828.344.313.985.313.578 0 1.11-.313.546-.312.859-.859.312-.563.484-1.578zm5.084 2.547l-.203.953q-.422.11-.812.11-.703 0-1.125-.345-.313-.25-.313-.703 0-.234.172-1.047l.828-4.015h-.922l.188-.906h.937l.344-1.703 1.36-.813-.532 2.516h1.156l-.187.906h-1.156l-.797 3.812q-.156.735-.156.875 0 .22.109.328.125.11.406.11.39 0 .703-.078zm5.61.093q-.625.532-1.188.782-.562.234-1.203.234-.969 0-1.563-.562-.578-.563-.578-1.438 0-.578.266-1.016.266-.453.703-.718.438-.282 1.063-.39.406-.079 1.515-.126 1.11-.047 1.594-.234.125-.485.125-.813 0-.406-.297-.64-.406-.329-1.187-.329-.75 0-1.22.329-.468.328-.687.937l-1.187-.11q.36-1.015 1.14-1.562.797-.547 2-.547 1.282 0 2.032.61.578.453.578 1.187 0 .547-.156 1.281l-.391 1.72q-.188.812-.188 1.327 0 .328.157.938h-1.203q-.094-.344-.125-.86zm.421-2.64q-.234.094-.53.156-.282.047-.938.11-1.032.078-1.453.218-.422.14-.641.453-.219.297-.219.672 0 .5.344.828.344.313.984.313.578 0 1.11-.313.547-.312.859-.859.313-.563.484-1.578zm2.32 3.5l2-9.547h1.171l-.703 3.422q.562-.516 1.016-.719.453-.219.953-.219.968 0 1.609.72.64.718.64 2.093 0 .922-.265 1.687-.25.766-.64 1.282-.376.515-.782.828-.406.297-.844.453-.421.156-.828.156-.687 0-1.203-.36-.515-.359-.812-1.109l-.266 1.313h-1.047zm1.75-2.844v.234q0 .875.421 1.344.422.453 1.047.453t1.14-.422q.516-.437.844-1.343.328-.922.328-1.703 0-.875-.421-1.36-.407-.484-1.032-.484-.64 0-1.172.5-.53.484-.89 1.515-.266.766-.266 1.266zm5.568 2.844l2-9.547h1.172l-1.985 9.547h-1.187zm8.133-2.344l1.156.11q-.25.859-1.14 1.624-.891.766-2.126.766-.765 0-1.406-.344-.64-.359-.984-1.03-.328-.688-.328-1.548 0-1.14.515-2.203.532-1.062 1.36-1.578.843-.516 1.812-.516 1.235 0 1.969.766.75.766.75 2.094 0 .5-.094 1.047h-5.094q-.03.187-.03.359 0 .969.437 1.484.453.5 1.11.5.593 0 1.17-.39.595-.39.923-1.14zm-3.422-1.719h3.875q.016-.187.016-.265 0-.875-.454-1.344-.437-.484-1.125-.484-.765 0-1.39.53-.61.516-.922 1.563z"/><path fill="none" d="M109.133 250.7h3.703v15.326h-3.703V250.7zM112.836 250.7v15.326V250.7z"/><path fill="#ff0" d="M62.455 265.966H92.82v16H62.455v-16z"/><path fill="none" d="M62.455 266.7H92.82v15.326H62.455V266.7z"/><path fill="#000" d="M67.674 276.25l1.172.125q-.438 1.297-1.266 1.922-.813.625-1.844.625-1.14 0-1.844-.719-.687-.734-.687-2.047 0-1.125.437-2.218.454-1.094 1.282-1.657.843-.578 1.922-.578 1.109 0 1.765.625.656.625.656 1.657l-1.156.078q-.015-.657-.39-1.016-.375-.375-.985-.375-.703 0-1.234.453-.516.438-.813 1.36-.297.906-.297 1.75 0 .89.391 1.343.39.438.969.438.562 0 1.078-.438.531-.437.844-1.328zm1.445 5.188l.078-1.11q.36.11.703.11.36 0 .578-.172.282-.219.625-.797l.375-.688-1.156-6.921h1.172l.516 3.484q.156 1.047.265 2.078l3.094-5.562h1.234l-4.406 7.828q-.64 1.14-1.14 1.515-.5.375-1.141.375-.406 0-.797-.14zm11.883-5.188l1.172.125q-.438 1.297-1.266 1.922-.812.625-1.844.625-1.14 0-1.843-.719-.688-.734-.688-2.047 0-1.125.438-2.218.453-1.094 1.28-1.657.845-.578 1.923-.578 1.109 0 1.765.625.657.625.657 1.657l-1.157.078q-.015-.657-.39-1.016-.375-.375-.985-.375-.703 0-1.234.453-.516.438-.813 1.36-.296.906-.296 1.75 0 .89.39 1.343.39.438.969.438.562 0 1.078-.438.531-.437.844-1.328zm1.789 2.516l2-9.547h1.172l-1.985 9.547h-1.187zm8.133-2.344l1.156.11q-.25.859-1.14 1.624-.891.766-2.126.766-.765 0-1.406-.344-.64-.359-.984-1.03-.328-.688-.328-1.548 0-1.14.515-2.203.532-1.062 1.36-1.578.843-.516 1.812-.516 1.235 0 1.969.766.75.766.75 2.094 0 .5-.094 1.047h-5.094q-.03.187-.03.359 0 .969.437 1.484.453.5 1.11.5.593 0 1.17-.39.595-.39.923-1.14zm-3.422-1.719h3.875q.016-.187.016-.265 0-.875-.454-1.344-.437-.484-1.125-.484-.765 0-1.39.53-.61.516-.922 1.563z"/><path fill="none" d="M92.82 266.7v15.326V266.7zM77.638 276.454l46.299 84.189"/><path stroke="#000" stroke-linejoin="round" stroke-linecap="butt" d="M77.638 276.454l43.408 78.932"/><path fill="#000" stroke="#000" stroke-linecap="butt" d="M119.598 356.182l3.635 3.18-.74-4.772z" fill-rule="evenodd"/><path fill="none" d="M557.328 246.827v226.96"/><path stroke="#000" stroke-linejoin="round" stroke-linecap="butt" d="M557.328 246.827v226.96"/><path fill="none" d="M499.9 54.097h117.732v34.677H499.9z"/><path fill="#000" d="M522.997 77.296l-4.11-11.453h2.516l2.906 8.468 2.797-8.468h2.453l-4.094 11.453h-2.468zm6.03-4.266q0-1.094.532-2.11.547-1.03 1.531-1.562 1-.547 2.22-.547 1.874 0 3.077 1.22 1.203 1.218 1.203 3.093t-1.218 3.125q-1.203 1.234-3.047 1.234-1.14 0-2.188-.515-1.031-.516-1.578-1.516-.531-1-.531-2.422zm2.25.11q0 1.234.579 1.89.594.656 1.453.656.86 0 1.438-.656.593-.656.593-1.906 0-1.219-.593-1.875-.578-.656-1.438-.656t-1.453.656q-.578.656-.578 1.89zm8.04-5.266v-2.031h2.187v2.03h-2.187zm0 9.422v-8.297h2.187v8.297h-2.187zm11.68-5.844l-2.172.39q-.11-.656-.5-.984-.375-.328-1-.328-.813 0-1.313.578-.484.563-.484 1.89 0 1.47.5 2.079.5.61 1.328.61.625 0 1.016-.344.406-.36.578-1.235l2.156.375q-.344 1.485-1.297 2.25-.953.75-2.547.75-1.828 0-2.906-1.14-1.078-1.157-1.078-3.188 0-2.062 1.078-3.203 1.094-1.14 2.938-1.14 1.515 0 2.406.656.906.64 1.297 1.984zm6.46 3.203l2.188.36q-.422 1.203-1.328 1.843-.906.625-2.281.625-2.157 0-3.203-1.422-.813-1.125-.813-2.86 0-2.062 1.078-3.218 1.078-1.172 2.719-1.172 1.86 0 2.922 1.22 1.078 1.218 1.031 3.75h-5.5q.016.968.516 1.515.515.547 1.281.547.516 0 .86-.282.359-.28.53-.906zm.126-2.219q-.016-.953-.485-1.453-.469-.5-1.14-.5-.72 0-1.188.531-.469.516-.469 1.422h3.282zm7.843 1.125l2.25-.218q.203 1.14.828 1.671.625.532 1.672.532 1.125 0 1.688-.47.562-.483.562-1.108 0-.407-.234-.688-.234-.297-.828-.5-.406-.14-1.86-.5-1.859-.469-2.609-1.14-1.047-.938-1.047-2.297 0-.875.485-1.641.5-.766 1.437-1.156.938-.407 2.25-.407 2.156 0 3.25.954 1.094.937 1.14 2.515l-2.312.11q-.14-.891-.64-1.266-.485-.39-1.454-.39-1.015 0-1.578.406-.375.265-.375.718 0 .407.344.688.438.375 2.125.781 1.688.39 2.5.813.813.421 1.266 1.171.453.735.453 1.813 0 .984-.547 1.844-.547.86-1.547 1.28-1 .423-2.484.423-2.172 0-3.344-1-1.156-1.016-1.39-2.938zm11.25-7.718h4.235q1.422 0 2.172.218 1.015.297 1.734 1.063.719.75 1.094 1.844.375 1.093.375 2.703 0 1.422-.36 2.437-.422 1.25-1.218 2.031-.61.579-1.625.907-.766.25-2.047.25h-4.36V65.843zm2.313 1.937v7.578h1.734q.969 0 1.39-.11.563-.14.938-.468.375-.344.61-1.11.234-.765.234-2.093 0-1.328-.234-2.031-.235-.72-.657-1.11-.421-.406-1.078-.547-.484-.109-1.89-.109h-1.047zm9.289 9.516V65.843h2.312v5.078l4.672-5.078h3.11l-4.313 4.453 4.547 7h-3l-3.14-5.375-1.876 1.906v3.469h-2.312z"/><path fill="none" d="M375.866 102.396H530.67v20.977H375.866z"/><path fill="#000" d="M427.445 117.685l1.984-9.547h1.969l-2 9.547h-1.953zm5.234-6.907h1.781l-.187.89q.656-.577 1.234-.812.578-.25 1.219-.25.843 0 1.328.5.5.485.5 1.282 0 .375-.203 1.39l-.813 3.907h-1.875l.828-3.922q.172-.875.172-1.047 0-.36-.219-.563-.203-.203-.578-.203-.406 0-.906.344t-.797.906q-.203.406-.469 1.64l-.593 2.845h-1.86l1.438-6.907zm8.672-2.64h1.86l-.344 1.703h-1.875l.36-1.703zm-.546 2.64h1.859l-1.438 6.907h-1.875l1.454-6.907zm2.718 1.375l.281-1.375h.922l.22-1.11 2.14-1.296-.5 2.406h1.14l-.28 1.375h-1.142l-.609 2.907q-.172.78-.172.89 0 .219.14.344.141.11.5.11.126 0 .61-.048l-.281 1.391q-.484.094-1 .094-.984 0-1.438-.375-.437-.375-.437-1.063 0-.312.234-1.468l.578-2.782h-.906zm5.97-4.015h1.86l-.345 1.703h-1.875l.36-1.703zm-.547 2.64h1.86l-1.438 6.907h-1.875l1.453-6.907zm4.89 1.953l-1.828-.156q.313-.922 1.094-1.437.781-.532 2.063-.532 1.328 0 1.968.547.64.532.64 1.313 0 .312-.062.672-.046.343-.375 1.828-.28 1.234-.28 1.734 0 .438.155.985H455.4q-.11-.375-.14-.782-.407.453-.938.703-.531.235-1.078.235-.86 0-1.422-.563-.563-.562-.563-1.437 0-1 .61-1.578.625-.594 2.203-.72 1.344-.108 1.781-.265.125-.39.125-.625 0-.312-.25-.5-.234-.203-.703-.203-.5 0-.797.203-.281.203-.39.578zm1.782 1.735q-.172.047-.453.078-1.407.172-1.844.5-.297.234-.297.625 0 .328.234.562.235.22.61.22.422 0 .797-.204.375-.203.562-.531.188-.328.328-1l.063-.25zm2.975 3.219l2-9.547h1.859l-1.984 9.547h-1.875zm5.718-9.547h1.86l-.344 1.703h-1.875l.36-1.703zm-.547 2.64h1.86l-1.438 6.907h-1.875l1.453-6.907zm1.938 6.907l.265-1.266 3.797-4.188h-3.094l.297-1.453h5.422l-.219 1.11-3.828 4.28h3.328l-.312 1.517h-5.656zm13.71-2.875h-4.687v.171q0 .688.39 1.11.391.422.954.422.937 0 1.453-.97l1.672.282q-.484 1.016-1.313 1.516-.812.5-1.828.5-1.39 0-2.265-.875-.86-.875-.86-2.328 0-1.422.782-2.532 1.078-1.5 3.062-1.5 1.266 0 2.016.797.75.782.75 2.188 0 .672-.125 1.219zm-1.577-1.141v-.188q0-.765-.344-1.14-.344-.39-.922-.39-.578 0-1.047.437-.453.422-.61 1.28h2.923z"/><path fill="none" d="M379.587 128.475H534.39v20.976H379.587z"/><path fill="#000" d="M398.762 146.576q-1.016-2.25-1.016-4.61 0-1.578.406-2.921.422-1.36 1.266-2.688.562-.89 1.797-2.297h.906q-.75.813-1.61 2.297-.843 1.469-1.234 2.906-.375 1.422-.375 2.86 0 2.14.75 4.453h-.89zm2.844-5.172l1.188-.078q0 .515.156.875t.578.594q.422.218.969.218.781 0 1.172-.312.39-.313.39-.735 0-.312-.234-.578-.234-.281-1.172-.672-.937-.406-1.187-.578-.438-.265-.672-.625-.219-.36-.219-.828 0-.812.656-1.39.657-.594 1.828-.594 1.297 0 1.97.61.687.593.718 1.577l-1.156.078q-.032-.625-.453-.984-.407-.375-1.172-.375-.61 0-.953.281-.329.282-.329.61 0 .312.297.562.188.172 1 .531 1.36.579 1.703.922.563.532.563 1.313 0 .515-.313 1.015-.312.485-.968.782-.64.297-1.516.297-1.203 0-2.047-.594-.844-.594-.797-1.922zm11.633.016l1.156.109q-.25.86-1.14 1.625-.89.766-2.125.766-.766 0-1.406-.344-.641-.36-.985-1.031-.328-.688-.328-1.547 0-1.141.516-2.203.53-1.063 1.359-1.579.844-.515 1.813-.515 1.234 0 1.968.765.75.766.75 2.094 0 .5-.093 1.047h-5.094q-.031.188-.031.36 0 .968.437 1.484.453.5 1.11.5.593 0 1.171-.39.594-.391.922-1.141zm-3.422-1.72h3.875q.016-.187.016-.265 0-.875-.453-1.344-.438-.484-1.125-.484-.766 0-1.39.531-.61.516-.923 1.563zm8.522 3.11l-.203.953q-.422.11-.812.11-.704 0-1.125-.344-.313-.25-.313-.703 0-.235.172-1.047l.828-4.016h-.922l.188-.906h.937l.344-1.703 1.36-.813-.532 2.516h1.156l-.187.906h-1.156l-.797 3.813q-.157.734-.157.875 0 .219.11.328.125.11.406.11.39 0 .703-.079zm5.656-.297q-1.234 1.407-2.547 1.407-.797 0-1.297-.454-.484-.468-.484-1.125 0-.437.219-1.5l.844-3.984h1.171l-.921 4.406q-.11.563-.11.86 0 .39.235.609.234.219.703.219.484 0 .953-.235.484-.234.812-.64.344-.422.563-.985.14-.359.328-1.25l.625-2.984h1.187l-1.453 6.906h-1.078l.25-1.25zm2.116 3.907l2-9.563h1.094l-.204.953q.594-.625 1.079-.86.484-.25 1.015-.25.985 0 1.625.72.656.718.656 2.062 0 1.078-.359 1.969-.344.875-.875 1.422-.516.547-1.047.797-.531.25-1.094.25-1.25 0-1.921-1.266l-.782 3.766h-1.187zm2.328-5.485q0 .781.11 1.078.171.422.53.688.376.25.876.25 1.015 0 1.64-1.14.625-1.141.625-2.329 0-.875-.422-1.36-.422-.484-1.047-.484-.453 0-.843.25-.375.235-.703.703-.329.47-.547 1.157-.219.687-.219 1.187zm14.147.313l1.172.125q-.438 1.297-1.266 1.922-.813.625-1.844.625-1.14 0-1.844-.72-.687-.734-.687-2.046 0-1.125.437-2.219.454-1.094 1.282-1.656.843-.578 1.922-.578 1.109 0 1.765.625.656.625.656 1.656l-1.156.078q-.015-.656-.39-1.015-.375-.375-.985-.375-.703 0-1.234.453-.516.437-.813 1.359-.297.906-.297 1.75 0 .89.391 1.344.39.437.969.437.562 0 1.078-.437.531-.438.844-1.328zm6.554 1.656q-.625.531-1.187.781-.563.235-1.203.235-.969 0-1.563-.563-.578-.562-.578-1.437 0-.579.266-1.016.265-.453.703-.719.437-.281 1.062-.39.407-.079 1.516-.125 1.11-.047 1.594-.235.125-.484.125-.812 0-.407-.297-.641-.406-.328-1.188-.328-.75 0-1.218.328-.47.328-.688.938l-1.187-.11q.359-1.015 1.14-1.562.797-.547 2-.547 1.282 0 2.032.61.578.452.578 1.187 0 .547-.157 1.28l-.39 1.72q-.188.812-.188 1.328 0 .328.157.937h-1.204q-.093-.343-.125-.86zm.422-2.64q-.234.093-.531.156-.281.046-.937.109-1.032.078-1.454.219-.421.14-.64.453-.219.297-.219.672 0 .5.344.828.344.312.984.312.578 0 1.11-.312.546-.313.859-.86.312-.562.484-1.578zm2.225 3.5l2-9.548h1.172l-1.984 9.547h-1.188zm2.961 0l2-9.548h1.172l-1.984 9.547h-1.188zm3.055 0l2-9.548h1.172l-.703 3.422q.562-.515 1.016-.718.453-.22.953-.22.968 0 1.609.72.64.718.64 2.093 0 .922-.265 1.688-.25.765-.64 1.281-.376.516-.782.828-.406.297-.844.453-.421.157-.828.157-.687 0-1.203-.36-.515-.36-.812-1.11l-.266 1.313h-1.047zm1.75-2.844v.234q0 .875.422 1.344.422.453 1.047.453t1.14-.422q.516-.438.844-1.344.328-.922.328-1.703 0-.875-.421-1.36-.407-.484-1.032-.484-.64 0-1.172.5-.53.485-.89 1.516-.266.766-.266 1.266zm10.335 1.984q-.625.531-1.188.781-.562.235-1.203.235-.969 0-1.563-.563-.578-.562-.578-1.437 0-.579.266-1.016.266-.453.703-.719.438-.281 1.063-.39.406-.079 1.515-.125 1.11-.047 1.594-.235.125-.484.125-.812 0-.407-.297-.641-.406-.328-1.187-.328-.75 0-1.22.328-.468.328-.687.938l-1.187-.11q.36-1.015 1.14-1.562.797-.547 2-.547 1.282 0 2.032.61.578.452.578 1.187 0 .547-.156 1.28l-.391 1.72q-.188.812-.188 1.328 0 .328.157.937h-1.203q-.094-.343-.125-.86zm.421-2.64q-.234.093-.53.156-.282.046-.938.109-1.032.078-1.453.219-.422.14-.641.453-.219.297-.219.672 0 .5.344.828.344.312.984.312.578 0 1.11-.312.547-.313.859-.86.313-.562.484-1.578zm7.1.984l1.172.125q-.437 1.297-1.265 1.922-.813.625-1.844.625-1.14 0-1.844-.72-.687-.734-.687-2.046 0-1.125.437-2.219.453-1.094 1.281-1.656.844-.578 1.922-.578 1.11 0 1.766.625.656.625.656 1.656l-1.156.078q-.016-.656-.39-1.015-.376-.375-.985-.375-.703 0-1.235.453-.515.437-.812 1.359-.297.906-.297 1.75 0 .89.39 1.344.391.437.97.437.562 0 1.078-.437.53-.438.843-1.328zm1.899 2.515l2-9.547h1.172l-1.235 5.922 3.438-3.281h1.547l-2.938 2.578 1.781 4.328h-1.296l-1.375-3.547-1.438 1.235-.469 2.312h-1.187zm6.758-2.36l1.187-.077q0 .515.156.875.157.36.578.594.422.218.97.218.78 0 1.171-.312.39-.313.39-.735 0-.312-.234-.578-.234-.281-1.172-.672-.937-.406-1.187-.578-.438-.265-.672-.625-.219-.36-.219-.828 0-.812.657-1.39.656-.594 1.828-.594 1.297 0 1.968.61.688.593.72 1.577l-1.157.078q-.031-.625-.453-.984-.406-.375-1.172-.375-.61 0-.953.281-.328.282-.328.61 0 .312.297.562.187.172 1 .531 1.359.579 1.703.922.562.532.562 1.313 0 .515-.312 1.015-.313.485-.969.782-.64.297-1.516.297-1.203 0-2.047-.594-.843-.594-.796-1.922zm6.836 2.36l.28-1.328h1.345l-.235 1.156q-.234 1.047-.703 1.532-.453.5-1.094.562l.11-.515q.78-.204 1.03-1.407h-.733zm8.593 0l.281-1.328h1.344l-.297 1.328h-1.328zm4.453 0l.281-1.328h1.344l-.281 1.328h-1.344zm4.469 0l.281-1.328h1.328l-.281 1.328h-1.328zm5.14-9.703q1.032 2.235 1.032 4.594 0 1.578-.422 2.937-.406 1.36-1.25 2.688-.563.89-1.797 2.297h-.906q.75-.828 1.594-2.313.859-1.468 1.234-2.89.39-1.422.39-2.875 0-2.141-.75-4.438h.876z"/><path fill="none" d="M375.866 246.396H530.67v20.977H375.866z"/><path fill="#000" d="M434.137 259.575h-3.781l-1.14 2.11h-2.032l5.406-9.547h2.172l1.547 9.547h-1.86l-.312-2.11zm-.25-1.594l-.547-3.828-2.297 3.828h2.844zm8.297 1.094l1.813.297q-.438 1.219-1.328 1.844-.875.625-2.032.625-1.328 0-2.109-.781-.766-.782-.766-2.172 0-1.125.47-2.125.468-1 1.405-1.578.953-.579 2.078-.579 1.22 0 1.954.641.734.64.812 1.688l-1.766.187q-.062-.578-.359-.844-.281-.281-.75-.281-.547 0-1.016.406-.468.39-.718 1.203-.25.797-.25 1.5 0 .61.297.954.296.328.75.328.453 0 .859-.328.422-.329.656-.985zm3.194-2.922l.281-1.375h.922l.219-1.11 2.14-1.296-.5 2.406h1.141l-.281 1.375h-1.14l-.61 2.907q-.172.78-.172.89 0 .219.14.344.141.11.5.11.126 0 .61-.048l-.281 1.391q-.485.094-1 .094-.985 0-1.438-.375-.437-.375-.437-1.063 0-.312.234-1.468l.578-2.782h-.906zm5.97-4.015h1.859l-.344 1.703h-1.875l.36-1.703zm-.547 2.64h1.86l-1.438 6.907h-1.875l1.453-6.907zm5.703 6.907h-1.61l-1.375-6.907h1.828l.485 3.016q.203 1.219.25 1.625.047-.11.437-.844.407-.734.5-.89l1.72-2.907h2.015l-4.25 6.907zm6.6-4.954l-1.828-.156q.312-.922 1.093-1.437.782-.532 2.063-.532 1.328 0 1.969.547.64.532.64 1.313 0 .312-.062.672-.047.343-.375 1.828-.282 1.234-.282 1.734 0 .438.157.985h-1.813q-.11-.375-.14-.782-.407.453-.938.703-.531.235-1.078.235-.86 0-1.422-.563-.562-.562-.562-1.437 0-1 .609-1.578.625-.594 2.203-.72 1.344-.108 1.781-.265.125-.39.125-.625 0-.312-.25-.5-.234-.203-.703-.203-.5 0-.797.203-.281.203-.39.578zm1.78 1.735q-.171.047-.452.078-1.406.172-1.844.5-.297.234-.297.625 0 .328.235.562.234.22.609.22.422 0 .797-.204.375-.203.562-.531.188-.328.328-1l.063-.25zm3.46-2.313l.282-1.375h.921l.22-1.11 2.14-1.296-.5 2.406h1.14l-.28 1.375h-1.141l-.61 2.907q-.172.78-.172.89 0 .219.14.344.142.11.5.11.126 0 .61-.048l-.281 1.391q-.484.094-1 .094-.984 0-1.437-.375-.438-.375-.438-1.063 0-.312.234-1.468l.579-2.782h-.907zm10.704 2.657h-4.687v.171q0 .688.39 1.11.391.422.953.422.938 0 1.454-.97l1.671.282q-.484 1.016-1.312 1.516-.813.5-1.828.5-1.39 0-2.266-.875-.86-.875-.86-2.328 0-1.422.782-2.532 1.078-1.5 3.063-1.5 1.265 0 2.015.797.75.782.75 2.188 0 .672-.125 1.219zm-1.578-1.141v-.188q0-.765-.344-1.14-.343-.39-.922-.39-.578 0-1.046.437-.454.422-.61 1.28h2.922z"/><path fill="none" d="M352.761 376.173h201.543"/><path stroke="#000" stroke-linejoin="round" stroke-linecap="butt" d="M358.761 376.173h189.543"/><path fill="#000" stroke="#000" stroke-linecap="butt" d="M358.761 374.521l-4.538 1.652 4.538 1.652zM548.304 377.825l4.539-1.652-4.539-1.652z" fill-rule="evenodd"/><path fill="none" d="M375.866 350.396H530.67v20.977H375.866z"/><path fill="#000" d="M429.664 365.685l1.984-9.547h1.969l-2 9.547h-1.953zm5.234-6.907h1.781l-.187.89q.656-.577 1.234-.812.578-.25 1.219-.25.844 0 1.328.5.5.485.5 1.282 0 .375-.203 1.39l-.813 3.906h-1.875l.829-3.921q.171-.875.171-1.047 0-.36-.218-.563-.203-.203-.578-.203-.407 0-.907.344t-.797.906q-.203.406-.468 1.64l-.594 2.845h-1.86l1.438-6.907zm7.141 1.375l.282-1.375h.922l.218-1.11 2.14-1.296-.5 2.406h1.142l-.282 1.375h-1.14l-.61 2.906q-.172.782-.172.891 0 .219.141.344.14.11.5.11.125 0 .61-.048l-.282 1.391q-.484.094-1 .094-.984 0-1.437-.375-.438-.375-.438-1.063 0-.312.235-1.469l.578-2.78h-.907zm10.704 2.656h-4.687v.172q0 .688.39 1.11.391.422.954.422.937 0 1.453-.97l1.672.282q-.485 1.016-1.313 1.516-.812.5-1.828.5-1.39 0-2.266-.875-.859-.875-.859-2.328 0-1.422.781-2.532 1.078-1.5 3.063-1.5 1.265 0 2.015.797.75.781.75 2.188 0 .672-.125 1.219zm-1.578-1.14v-.188q0-.765-.343-1.14-.344-.39-.922-.39-.578 0-1.047.437-.453.422-.61 1.28h2.922zm3.6-2.89h1.75l-.281 1.327q.969-1.5 2.11-1.5.406 0 .859.204l-.703 1.53q-.266-.093-.547-.093-.485 0-.985.375-.5.36-.78.969-.266.61-.548 1.922l-.453 2.172h-1.875l1.453-6.907zm6.484 1.952l-1.828-.156q.312-.922 1.094-1.437.78-.532 2.062-.532 1.328 0 1.969.547.64.531.64 1.313 0 .312-.062.672-.047.343-.375 1.828-.281 1.234-.281 1.734 0 .438.156.985h-1.813q-.109-.375-.14-.782-.406.453-.938.703-.531.235-1.078.235-.86 0-1.422-.563-.562-.562-.562-1.437 0-1 .61-1.578.624-.594 2.202-.72 1.344-.108 1.782-.265.125-.39.125-.625 0-.312-.25-.5-.235-.203-.704-.203-.5 0-.796.203-.282.203-.391.578zm1.781 1.735q-.172.047-.453.078-1.406.172-1.844.5-.297.234-.297.625 0 .328.235.562.234.22.61.22.421 0 .796-.204.375-.203.563-.531.187-.328.328-1l.062-.25zm7.678.61l1.813.296q-.438 1.219-1.328 1.844-.875.625-2.032.625-1.328 0-2.109-.781-.766-.782-.766-2.172 0-1.125.47-2.125.468-1 1.405-1.578.954-.579 2.079-.579 1.218 0 1.953.641.734.64.812 1.688l-1.765.187q-.063-.578-.36-.844-.281-.281-.75-.281-.547 0-1.015.406-.47.39-.72 1.203-.25.797-.25 1.5 0 .61.298.954.297.328.75.328t.859-.328q.422-.329.656-.985zm3.194-2.923l.281-1.375h.922l.219-1.11 2.14-1.296-.5 2.406h1.141l-.281 1.375h-1.14l-.61 2.906q-.172.782-.172.891 0 .219.14.344.141.11.5.11.126 0 .61-.048l-.281 1.391q-.485.094-1 .094-.985 0-1.438-.375-.437-.375-.437-1.063 0-.312.234-1.469l.578-2.78h-.906z"/><path fill="none" d="M380.024 380.974h154.803v30.11H380.024z"/><path fill="#000" d="M404.747 395.641q-1.016-2.25-1.016-4.609 0-1.578.406-2.922.422-1.36 1.266-2.687.562-.891 1.797-2.297h.906q-.75.812-1.61 2.297-.843 1.468-1.234 2.906-.375 1.422-.375 2.86 0 2.14.75 4.452h-.89zm7.516-5.328l1.172.125q-.437 1.297-1.266 1.922-.812.625-1.843.625-1.14 0-1.844-.719-.688-.734-.688-2.047 0-1.125.438-2.218.453-1.094 1.281-1.657.844-.578 1.922-.578 1.11 0 1.766.625.656.625.656 1.657l-1.156.078q-.016-.657-.39-1.016-.376-.375-.985-.375-.703 0-1.235.453-.515.438-.812 1.36-.297.906-.297 1.75 0 .89.39 1.343.391.438.97.438.562 0 1.077-.438.532-.437.844-1.328zm6.555 1.656q-.625.532-1.188.782-.562.234-1.203.234-.969 0-1.562-.562-.578-.563-.578-1.438 0-.578.265-1.016.266-.453.703-.718.438-.282 1.063-.39.406-.079 1.515-.126 1.11-.047 1.594-.234.125-.485.125-.813 0-.406-.297-.64-.406-.329-1.187-.329-.75 0-1.219.329-.469.328-.687.937l-1.188-.11q.36-1.015 1.14-1.562.798-.547 2-.547 1.282 0 2.032.61.578.453.578 1.187 0 .547-.156 1.281l-.39 1.72q-.188.812-.188 1.327 0 .328.156.938h-1.203q-.094-.344-.125-.86zm.422-2.64q-.235.094-.532.156-.28.047-.937.11-1.031.078-1.453.218-.422.14-.64.453-.22.297-.22.672 0 .5.344.828.344.313.985.313.578 0 1.109-.313.547-.312.86-.859.312-.563.484-1.578zm2.225 3.5l2-9.547h1.172l-1.985 9.547h-1.187zm2.96 0l2-9.547h1.173l-1.985 9.547h-1.187zm6.759 0l1.437-6.906h1.188l-.25 1.14q.656-.75 1.172-1.015.53-.282 1.125-.282.656 0 1.078.344.437.328.578.953.515-.656 1.094-.969.593-.328 1.234-.328.875 0 1.297.407.437.406.437 1.156 0 .312-.156 1.047l-.922 4.453h-1.172l.938-4.563q.125-.562.125-.812 0-.328-.219-.516-.203-.203-.594-.203-.531 0-1.078.328-.547.313-.86.828-.296.516-.515 1.594l-.703 3.344h-1.187l.984-4.672q.11-.469.11-.672 0-.344-.22-.547-.218-.203-.546-.203-.5 0-1.063.328-.547.313-.89.875-.344.563-.563 1.625l-.687 3.266h-1.172zm15.774-.86q-.625.532-1.188.782-.562.234-1.203.234-.968 0-1.562-.562-.578-.563-.578-1.438 0-.578.265-1.016.266-.453.703-.718.438-.282 1.063-.39.406-.079 1.516-.126 1.109-.047 1.593-.234.125-.485.125-.813 0-.406-.297-.64-.406-.329-1.187-.329-.75 0-1.219.329-.469.328-.687.937l-1.188-.11q.36-1.015 1.14-1.562.798-.547 2-.547 1.282 0 2.032.61.578.453.578 1.187 0 .547-.156 1.281l-.39 1.72q-.188.812-.188 1.327 0 .328.156.938h-1.203q-.094-.344-.125-.86zm.422-2.64q-.235.094-.531.156-.282.047-.938.11-1.031.078-1.453.218-.422.14-.64.453-.22.297-.22.672 0 .5.344.828.344.313.985.313.578 0 1.11-.313.546-.312.858-.859.313-.563.485-1.578zm2.319 3.5l1.453-6.906h1.062l-.25 1.203q.688-.719 1.297-1.032.61-.328 1.234-.328.844 0 1.313.453.484.454.484 1.22 0 .374-.172 1.202l-.875 4.188h-1.171l.921-4.375q.125-.64.125-.953 0-.344-.234-.547-.234-.219-.687-.219-.907 0-1.61.656-.703.641-1.031 2.22l-.672 3.218h-1.187zm12.084-.86q-.625.532-1.188.782-.562.234-1.203.234-.968 0-1.562-.562-.578-.563-.578-1.438 0-.578.265-1.016.266-.453.703-.718.438-.282 1.063-.39.406-.079 1.516-.126 1.109-.047 1.593-.234.125-.485.125-.813 0-.406-.297-.64-.406-.329-1.187-.329-.75 0-1.219.329-.469.328-.687.937l-1.188-.11q.36-1.015 1.14-1.562.798-.547 2-.547 1.282 0 2.032.61.578.453.578 1.187 0 .547-.156 1.281l-.39 1.72q-.188.812-.188 1.327 0 .328.156.938h-1.203q-.094-.344-.125-.86zm.422-2.64q-.235.094-.531.156-.282.047-.938.11-1.031.078-1.453.218-.422.14-.64.453-.22.297-.22.672 0 .5.344.828.344.313.985.313.578 0 1.109-.313.547-.312.86-.859.312-.563.484-1.578zm2.256 4.125l1.187.11q0 .405.11.609.11.203.344.312.328.14.828.14 1.062 0 1.531-.546.312-.375.578-1.625l.11-.563q-.922.938-1.954.938-1.047 0-1.75-.766-.703-.781-.703-2.187 0-1.172.547-2.14.563-.985 1.328-1.47.766-.5 1.578-.5 1.36 0 2.094 1.282l.234-1.125h1.079l-1.391 6.671q-.219 1.094-.594 1.704-.375.625-1.031.953-.656.343-1.531.343-.828 0-1.438-.218-.594-.203-.89-.625-.297-.407-.297-.953 0-.157.031-.344zm1.469-3.688q0 .72.14 1.078.203.5.563.766.36.25.797.25.578 0 1.14-.406.578-.406.938-1.25.36-.86.36-1.625 0-.86-.485-1.36-.469-.515-1.156-.515-.438 0-.844.234-.39.235-.75.703-.344.47-.531 1.141-.172.656-.172.984zm11.084.72l1.156.108q-.25.86-1.14 1.625-.89.766-2.125.766-.766 0-1.407-.344-.64-.359-.984-1.03-.328-.688-.328-1.548 0-1.14.516-2.203.53-1.062 1.359-1.578.844-.516 1.812-.516 1.235 0 1.97.766.75.766.75 2.094 0 .5-.095 1.047h-5.093q-.032.187-.032.359 0 .969.438 1.484.453.5 1.11.5.593 0 1.171-.39.594-.39.922-1.14zm-3.422-1.72h3.875q.016-.187.016-.265 0-.875-.453-1.344-.438-.484-1.125-.484-.766 0-1.39.53-.61.516-.923 1.563zm5.756 4.063l1.438-6.906h1.187l-.25 1.14q.657-.75 1.172-1.015.532-.282 1.125-.282.657 0 1.078.344.438.328.579.953.515-.656 1.093-.969.594-.328 1.235-.328.875 0 1.297.407.437.406.437 1.156 0 .312-.156 1.047l-.922 4.453h-1.172l.938-4.563q.125-.562.125-.812 0-.328-.22-.516-.202-.203-.593-.203-.531 0-1.078.328-.547.313-.86.828-.296.516-.515 1.594l-.703 3.344h-1.188l.985-4.672q.11-.469.11-.672 0-.344-.22-.547-.218-.203-.547-.203-.5 0-1.062.328-.547.313-.89.875-.344.563-.563 1.625l-.688 3.266h-1.172zm16.181-2.344l1.156.11q-.25.859-1.14 1.624-.891.766-2.125.766-.766 0-1.407-.344-.64-.359-.984-1.03-.328-.688-.328-1.548 0-1.14.516-2.203.53-1.062 1.359-1.578.844-.516 1.812-.516 1.235 0 1.97.766.75.766.75 2.094 0 .5-.095 1.047h-5.093q-.032.187-.032.359 0 .969.438 1.484.453.5 1.11.5.593 0 1.171-.39.594-.39.922-1.14zm-3.422-1.719h3.875q.016-.187.016-.265 0-.875-.453-1.344-.438-.484-1.125-.484-.766 0-1.391.53-.61.516-.922 1.563zm5.756 4.063l1.453-6.906h1.063l-.25 1.203q.687-.719 1.297-1.032.61-.328 1.234-.328.844 0 1.313.453.484.454.484 1.22 0 .374-.172 1.202l-.875 4.188h-1.172l.922-4.375q.125-.64.125-.953 0-.344-.234-.547-.235-.219-.688-.219-.906 0-1.609.656-.703.641-1.031 2.22l-.672 3.218h-1.188zm10.178-.953l-.203.953q-.422.11-.812.11-.703 0-1.125-.345-.313-.25-.313-.703 0-.234.172-1.047l.828-4.015h-.922l.188-.906h.937l.344-1.704 1.36-.812-.532 2.516h1.157l-.188.906h-1.156l-.797 3.812q-.156.735-.156.875 0 .22.11.328.124.11.405.11.391 0 .703-.078zm1.22.953l.28-1.328h1.344l-.234 1.156q-.235 1.047-.703 1.531-.454.5-1.094.563l.11-.516q.78-.203 1.03-1.406h-.734zM406.241 407.97q-.625.53-1.187.78-.563.235-1.203.235-.969 0-1.563-.562-.578-.563-.578-1.438 0-.578.266-1.016.265-.453.703-.718.437-.282 1.062-.39.407-.079 1.516-.126 1.11-.047 1.594-.234.125-.485.125-.813 0-.406-.297-.64-.406-.329-1.188-.329-.75 0-1.218.329-.47.328-.688.937l-1.187-.11q.359-1.015 1.14-1.562.797-.547 2-.547 1.282 0 2.032.61.578.453.578 1.187 0 .547-.157 1.281l-.39 1.72q-.188.812-.188 1.327 0 .328.157.938h-1.204q-.093-.344-.125-.86zm.422-2.641q-.234.094-.531.156-.281.047-.937.11-1.032.078-1.454.218-.421.14-.64.453-.219.297-.219.672 0 .5.344.828.344.313.984.313.578 0 1.11-.313.546-.312.859-.859.312-.563.484-1.578zm2.319 3.5l1.453-6.906h1.063l-.25 1.203q.687-.719 1.297-1.032.609-.328 1.234-.328.844 0 1.312.453.485.454.485 1.22 0 .374-.172 1.202l-.875 4.188h-1.172l.922-4.375q.125-.64.125-.953 0-.344-.234-.547-.235-.219-.688-.219-.906 0-1.61.656-.702.641-1.03 2.22l-.672 3.218h-1.188zm12.084-.86q-.625.532-1.187.782-.563.234-1.203.234-.969 0-1.563-.562-.578-.563-.578-1.438 0-.578.266-1.016.265-.453.703-.718.437-.282 1.062-.39.407-.079 1.516-.126 1.11-.047 1.594-.234.125-.485.125-.813 0-.406-.297-.64-.406-.329-1.188-.329-.75 0-1.218.329-.47.328-.688.937l-1.187-.11q.359-1.015 1.14-1.562.797-.547 2-.547 1.281 0 2.031.61.579.453.579 1.187 0 .547-.157 1.281l-.39 1.72q-.188.812-.188 1.327 0 .328.156.938h-1.203q-.093-.344-.125-.86zm.422-2.64q-.234.094-.531.156-.281.047-.938.11-1.03.078-1.453.218-.422.14-.64.453-.219.297-.219.672 0 .5.344.828.343.313.984.313.578 0 1.11-.313.546-.312.859-.859.312-.563.484-1.578zm2.225 3.5l2-9.547h1.172l-1.984 9.547h-1.188zm2.618 2.672l.078-1.11q.36.11.703.11.36 0 .578-.172.281-.219.625-.797l.375-.688-1.156-6.921h1.172l.515 3.484q.156 1.047.266 2.078l3.094-5.562h1.234l-4.406 7.828q-.64 1.14-1.14 1.515-.5.375-1.142.375-.406 0-.796-.14zm9.867-3.625l-.203.953q-.422.11-.813.11-.703 0-1.125-.345-.312-.25-.312-.703 0-.234.171-1.047l.829-4.015h-.922l.187-.906h.938l.343-1.704 1.36-.812-.531 2.516h1.156l-.188.906h-1.156l-.797 3.812q-.156.735-.156.875 0 .22.11.328.124.11.406.11.39 0 .703-.078zm2.609-7.25l.281-1.344h1.172l-.281 1.344h-1.172zm-1.719 8.203l1.453-6.906h1.172l-1.437 6.906h-1.188zm7.79-2.516l1.171.125q-.437 1.297-1.265 1.922-.813.625-1.844.625-1.14 0-1.844-.719-.687-.734-.687-2.047 0-1.125.437-2.218.453-1.094 1.281-1.657.844-.578 1.922-.578 1.11 0 1.766.625.656.625.656 1.657l-1.156.078q-.016-.657-.39-1.016-.376-.375-.985-.375-.703 0-1.234.453-.516.438-.813 1.36-.297.906-.297 1.75 0 .89.39 1.343.391.438.97.438.562 0 1.078-.438.53-.437.843-1.328zm1.992.156l1.187-.078q0 .516.156.875.157.36.578.594.422.219.97.219.78 0 1.171-.313.39-.312.39-.734 0-.313-.234-.578-.234-.281-1.172-.672-.937-.406-1.187-.578-.438-.266-.672-.625-.219-.36-.219-.828 0-.813.657-1.39.656-.595 1.828-.595 1.297 0 1.968.61.688.593.72 1.578l-1.157.078q-.031-.625-.453-.984-.406-.375-1.172-.375-.61 0-.953.28-.328.282-.328.61 0 .313.297.563.187.172 1 .531 1.359.578 1.703.922.562.531.562 1.312 0 .516-.312 1.016-.313.484-.969.781-.64.297-1.516.297-1.203 0-2.047-.594-.843-.593-.796-1.922zm6.836 2.36l.28-1.328h1.345l-.235 1.156q-.234 1.047-.703 1.531-.453.5-1.094.563l.11-.516q.78-.203 1.03-1.406h-.733zm7.03 0l2-9.547h1.172l-1.984 9.547h-1.187zm3.274-2.625q0-2.016 1.188-3.344.984-1.094 2.578-1.094 1.25 0 2.015.782.766.78.766 2.109 0 1.187-.484 2.219-.485 1.015-1.375 1.562-.891.547-1.875.547-.797 0-1.47-.344-.655-.343-1-.968-.343-.641-.343-1.47zm1.172-.11q0 .97.469 1.485.469.5 1.187.5.375 0 .75-.156.375-.157.688-.47.328-.312.547-.702.218-.407.359-.875.203-.64.203-1.235 0-.937-.469-1.453-.468-.515-1.187-.515-.563 0-1.016.265-.453.266-.828.781-.36.5-.531 1.172-.172.672-.172 1.203zm5.96 3.36l1.187.11q0 .405.11.609.109.203.343.312.328.14.828.14 1.063 0 1.531-.546.313-.375.578-1.625l.11-.563q-.922.938-1.953.938-1.047 0-1.75-.766-.703-.781-.703-2.187 0-1.172.546-2.14.563-.985 1.329-1.47.765-.5 1.578-.5 1.36 0 2.093 1.282l.235-1.125h1.078l-1.39 6.671q-.22 1.094-.594 1.704-.375.625-1.032.953-.656.343-1.53.343-.829 0-1.438-.218-.594-.203-.891-.625-.297-.407-.297-.953 0-.157.031-.344zm1.468-3.688q0 .72.14 1.078.204.5.563.766.36.25.797.25.578 0 1.14-.406.579-.406.938-1.25.36-.86.36-1.625 0-.86-.485-1.36-.469-.515-1.156-.515-.438 0-.844.234-.39.235-.75.703-.344.47-.531 1.141-.172.656-.172.984zm6.116.703l1.187-.078q0 .516.156.875.157.36.579.594.421.219.968.219.782 0 1.172-.313.39-.312.39-.734 0-.313-.234-.578-.234-.281-1.171-.672-.938-.406-1.188-.578-.437-.266-.672-.625-.219-.36-.219-.828 0-.813.657-1.39.656-.595 1.828-.595 1.297 0 1.969.61.687.593.718 1.578l-1.156.078q-.031-.625-.453-.984-.406-.375-1.172-.375-.61 0-.953.28-.328.282-.328.61 0 .313.297.563.187.172 1 .531 1.36.578 1.703.922.562.531.562 1.312 0 .516-.312 1.016-.313.484-.969.781-.64.297-1.516.297-1.203 0-2.046-.594-.844-.593-.797-1.922zm6.836 2.36l.28-1.328h1.345l-.235 1.156q-.234 1.047-.703 1.531-.453.5-1.094.563l.11-.516q.781-.203 1.031-1.406h-.734zm8.593 0l.281-1.328h1.344l-.297 1.328h-1.328zm4.453 0l.281-1.328h1.344l-.281 1.328h-1.344zm4.469 0l.281-1.328h1.328l-.28 1.328h-1.329zm8.844-9.703q1.03 2.234 1.03 4.593 0 1.579-.421 2.938-.406 1.36-1.25 2.687-.563.891-1.797 2.297h-.906q.75-.828 1.594-2.312.859-1.469 1.234-2.89.39-1.423.39-2.876 0-2.14-.75-4.437h.876z"/><path fill="none" d="M379.36 448.036h154.803v20.977H379.36z"/><path fill="#000" d="M424 463.324l2-9.547h2.562q1.078 0 1.375.032.594.062 1.062.25.47.187.844.515.39.328.656.797.282.453.422 1.063.157.593.157 1.312 0 1.531-.594 2.735-.578 1.187-1.469 1.89-.687.547-1.766.813-.609.14-1.89.14h-3.36zm2.28-1.53h1q1.079 0 1.563-.126.485-.14.89-.516.579-.515.97-1.39.406-.89.406-2.078 0-1.016-.328-1.516-.328-.516-.813-.687-.344-.125-1.203-.125h-1.14l-1.344 6.437zm14.032-1.345h-4.687v.172q0 .688.39 1.11.39.421.953.421.938 0 1.453-.968l1.672.281q-.484 1.016-1.312 1.516-.813.5-1.828.5-1.39 0-2.266-.875-.86-.875-.86-2.329 0-1.421.782-2.53 1.078-1.5 3.062-1.5 1.266 0 2.016.796.75.781.75 2.188 0 .671-.125 1.218zm-1.578-1.14v-.188q0-.765-.344-1.14-.344-.391-.922-.391-.578 0-1.047.437-.453.422-.609 1.282h2.922zm4.897-.938l-1.828-.156q.312-.922 1.093-1.438.782-.53 2.063-.53 1.328 0 1.969.546.64.531.64 1.313 0 .312-.062.671-.047.344-.375 1.829-.281 1.234-.281 1.734 0 .437.156.984h-1.813q-.11-.375-.14-.78-.407.452-.938.702-.531.235-1.078.235-.86 0-1.422-.563-.562-.562-.562-1.437 0-1 .609-1.579.625-.593 2.203-.718 1.344-.11 1.781-.266.125-.39.125-.625 0-.312-.25-.5-.234-.203-.703-.203-.5 0-.797.203-.28.203-.39.578zm1.781 1.735q-.172.046-.453.078-1.406.172-1.844.5-.297.234-.297.625 0 .328.235.562.234.219.609.219.422 0 .797-.203.375-.203.562-.531.188-.329.329-1l.062-.25zm7.678.609l1.813.297q-.438 1.219-1.328 1.844-.875.625-2.032.625-1.328 0-2.11-.782-.765-.78-.765-2.172 0-1.125.469-2.125t1.406-1.578q.953-.578 2.078-.578 1.22 0 1.954.64.734.641.812 1.688l-1.766.188q-.062-.578-.359-.844-.281-.281-.75-.281-.547 0-1.016.406-.468.39-.718 1.203-.25.797-.25 1.5 0 .61.297.953.296.328.75.328.453 0 .859-.328.422-.328.656-.984zm3.194-2.922l.281-1.375h.922l.219-1.11 2.14-1.296-.5 2.406h1.141l-.281 1.375h-1.14l-.61 2.906q-.172.782-.172.891 0 .219.14.344.141.11.5.11.125 0 .61-.048l-.281 1.39q-.485.095-1 .095-.985 0-1.438-.375-.437-.375-.437-1.063 0-.312.234-1.469l.578-2.78h-.906zm5.97-4.016h1.859l-.344 1.704h-1.875l.36-1.704zm-.547 2.641h1.859l-1.438 6.906h-1.875l1.454-6.906zm5.703 6.906h-1.61l-1.375-6.906h1.828l.485 3.016q.203 1.218.25 1.625.047-.11.437-.844.406-.734.5-.89l1.719-2.907h2.016l-4.25 6.906zm6.6-4.953l-1.829-.156q.313-.922 1.094-1.438.781-.53 2.063-.53 1.328 0 1.968.546.641.531.641 1.313 0 .312-.062.671-.047.344-.375 1.829-.282 1.234-.282 1.734 0 .437.157.984h-1.813q-.11-.375-.14-.78-.407.452-.938.702-.531.235-1.078.235-.86 0-1.422-.563-.563-.562-.563-1.437 0-1 .61-1.579.625-.593 2.203-.718 1.344-.11 1.781-.266.125-.39.125-.625 0-.312-.25-.5-.234-.203-.703-.203-.5 0-.797.203-.281.203-.39.578zm1.78 1.735q-.171.046-.452.078-1.407.172-1.844.5-.297.234-.297.625 0 .328.234.562.235.219.61.219.422 0 .797-.203.375-.203.562-.531.188-.329.328-1l.063-.25zm3.46-2.313l.281-1.375h.922l.22-1.11 2.14-1.296-.5 2.406h1.14l-.28 1.375h-1.142l-.609 2.906q-.172.782-.172.891 0 .219.14.344.141.11.5.11.126 0 .61-.048l-.281 1.39q-.484.095-1 .095-.984 0-1.438-.375-.437-.375-.437-1.063 0-.312.234-1.469l.578-2.78h-.906zm10.704 2.656h-4.687v.172q0 .688.39 1.11.39.421.953.421.938 0 1.454-.968l1.671.281q-.484 1.016-1.312 1.516-.813.5-1.828.5-1.39 0-2.266-.875-.86-.875-.86-2.329 0-1.421.782-2.53 1.078-1.5 3.063-1.5 1.265 0 2.015.796.75.781.75 2.188 0 .671-.125 1.218zm-1.578-1.14v-.188q0-.765-.344-1.14-.343-.391-.922-.391-.578 0-1.046.437-.454.422-.61 1.282h2.922z"/><path fill="#0f0" d="M557.99 290.404h23.307v178.614h-23.308z" fill-rule="evenodd"/><path stroke="#000" stroke-linejoin="round" stroke-linecap="butt" stroke-dasharray="1.0,3.0" d="M557.99 290.404h23.307v178.614h-23.308z"/><path fill="none" d="M398.647 290.404H553.45v28.693H398.647z"/><path fill="#ff0" d="M438.632 296.75h74.834v16H438.63v-16z"/><path fill="none" d="M438.632 297.485h74.834v15.326H438.63v-15.326z"/><path fill="#000" d="M443.74 308.691q-.624.532-1.187.782-.562.234-1.203.234-.968 0-1.562-.563-.578-.562-.578-1.437 0-.578.265-1.016.266-.453.703-.718.438-.282 1.063-.391.406-.078 1.516-.125 1.109-.047 1.593-.234.125-.485.125-.813 0-.406-.297-.64-.406-.329-1.187-.329-.75 0-1.219.328-.469.329-.687.938l-1.188-.11q.36-1.015 1.14-1.562.798-.547 2-.547 1.282 0 2.032.61.578.453.578 1.187 0 .547-.156 1.281l-.39 1.719q-.188.813-.188 1.328 0 .328.156.938h-1.203q-.094-.344-.125-.86zm.423-2.64q-.235.093-.531.156-.282.047-.938.11-1.031.077-1.453.218-.422.14-.64.453-.22.297-.22.672 0 .5.344.828.344.313.985.313.578 0 1.109-.313.547-.312.86-.86.312-.562.484-1.577zm7.1.984l1.172.125q-.438 1.297-1.266 1.922-.813.625-1.844.625-1.14 0-1.844-.719-.687-.734-.687-2.047 0-1.125.437-2.218.454-1.094 1.282-1.657.843-.578 1.922-.578 1.109 0 1.765.625.656.625.656 1.656l-1.156.079q-.015-.657-.39-1.016-.375-.375-.985-.375-.703 0-1.234.453-.516.438-.813 1.36-.297.906-.297 1.75 0 .89.391 1.343.39.438.969.438.562 0 1.078-.438.531-.437.844-1.328zm4.648 1.563l-.203.953q-.422.109-.812.109-.704 0-1.125-.344-.313-.25-.313-.703 0-.234.172-1.047l.828-4.015h-.922l.188-.907h.937l.344-1.703 1.36-.812-.532 2.515h1.156l-.187.907h-1.156l-.797 3.812q-.157.735-.157.875 0 .219.11.328.125.11.406.11.39 0 .703-.078zm2.61-7.25l.28-1.344h1.173l-.282 1.344h-1.172zm-1.72 8.203l1.454-6.907h1.172l-1.438 6.907h-1.187zm4.759 0l-1.141-6.907h1.156l.594 3.797q.094.625.234 2.047.344-.734.86-1.687l2.312-4.157h1.25l-3.953 6.907h-1.312zm9.992-2.344l1.156.11q-.25.859-1.14 1.624-.891.766-2.126.766-.765 0-1.406-.344-.64-.36-.984-1.031-.328-.688-.328-1.547 0-1.14.515-2.203.532-1.063 1.36-1.578.843-.516 1.812-.516 1.235 0 1.969.766.75.765.75 2.094 0 .5-.094 1.046h-5.094q-.03.188-.03.36 0 .969.437 1.484.453.5 1.11.5.593 0 1.17-.39.595-.391.923-1.141zm-3.422-1.719h3.875q.016-.187.016-.265 0-.875-.454-1.344-.437-.485-1.125-.485-.765 0-1.39.532-.61.515-.922 1.562zm8.881 6.719l2-9.563h1.094l-.203.954q.593-.625 1.078-.86.484-.25 1.015-.25.985 0 1.625.719.657.719.657 2.062 0 1.079-.36 1.97-.343.874-.875 1.421-.515.547-1.047.797-.53.25-1.093.25-1.25 0-1.922-1.266l-.781 3.766h-1.188zm2.328-5.484q0 .78.11 1.078.171.422.53.687.376.25.876.25 1.015 0 1.64-1.14.625-1.141.625-2.329 0-.875-.421-1.359-.422-.484-1.047-.484-.453 0-.844.25-.375.234-.703.703-.328.469-.547 1.156-.219.688-.219 1.188zm5.663 2.828l2-9.547h1.171l-.765 3.672q.656-.641 1.219-.907.578-.28 1.171-.28.86 0 1.329.452.484.453.484 1.188 0 .36-.203 1.344l-.86 4.078h-1.171l.875-4.188q.187-.906.187-1.14 0-.344-.234-.547-.235-.22-.672-.22-.64 0-1.219.345-.578.328-.906.906-.328.578-.61 1.875l-.609 2.969h-1.187zm12.084-.86q-.625.532-1.188.782-.562.234-1.203.234-.968 0-1.562-.563-.578-.562-.578-1.437 0-.578.265-1.016.266-.453.703-.718.438-.282 1.063-.391.406-.078 1.516-.125 1.109-.047 1.593-.234.125-.485.125-.813 0-.406-.297-.64-.406-.329-1.187-.329-.75 0-1.219.328-.469.329-.687.938l-1.188-.11q.36-1.015 1.14-1.562.798-.547 2-.547 1.282 0 2.032.61.578.453.578 1.187 0 .547-.156 1.281l-.39 1.719q-.188.813-.188 1.328 0 .328.156.938h-1.203q-.094-.344-.125-.86zm.422-2.64q-.235.093-.531.156-.282.047-.938.11-1.031.077-1.453.218-.422.14-.64.453-.22.297-.22.672 0 .5.344.828.344.313.985.313.578 0 1.11-.313.546-.312.858-.86.313-.562.485-1.577zm2.428 1.14l1.187-.078q0 .516.157.875.156.36.578.594.422.219.969.219.78 0 1.171-.313.391-.312.391-.734 0-.313-.234-.578-.235-.282-1.172-.672-.938-.406-1.188-.578-.437-.266-.672-.625-.218-.36-.218-.828 0-.813.656-1.391.656-.594 1.828-.594 1.297 0 1.969.61.687.593.719 1.578l-1.157.078q-.03-.625-.453-.985-.406-.375-1.172-.375-.61 0-.953.282-.328.28-.328.609 0 .313.297.563.187.171 1 .53 1.36.579 1.703.923.563.53.563 1.312 0 .516-.313 1.016-.312.484-.969.781-.64.297-1.515.297-1.203 0-2.047-.594-.844-.594-.797-1.922zm11.633.016l1.156.11q-.25.859-1.14 1.624-.891.766-2.126.766-.765 0-1.406-.344-.64-.36-.984-1.031-.328-.688-.328-1.547 0-1.14.515-2.203.532-1.063 1.36-1.578.843-.516 1.812-.516 1.235 0 1.969.766.75.765.75 2.094 0 .5-.094 1.046h-5.094q-.03.188-.03.36 0 .969.437 1.484.453.5 1.109.5.594 0 1.172-.39.594-.391.922-1.141zm-3.422-1.719h3.875q.016-.187.016-.265 0-.875-.454-1.344-.437-.485-1.125-.485-.765 0-1.39.532-.61.515-.922 1.562z"/><path fill="none" d="M513.466 297.485v15.326-15.326zM476.049 319.097l86.929 7.528"/><path stroke="#000" stroke-linejoin="round" stroke-linecap="butt" d="M479.824 319.424L557 326.107"/><path fill="#000" stroke="#000" stroke-linecap="butt" d="M476.547 319.14a1.645 1.645 0 113.277.284 1.645 1.645 0 01-3.277-.284z"/><path fill="#000" stroke="#000" stroke-linecap="butt" d="M556.858 327.753l4.663-1.254-4.378-2.038z" fill-rule="evenodd"/><path fill="none" d="M557.047 250.525V99.28"/><path stroke="#000" stroke-linejoin="round" stroke-linecap="butt" stroke-dasharray="4.0,3.0" d="M557.047 250.525V99.28"/><path fill="none" d="M556.667 562.063v-88.252"/><path stroke="#000" stroke-linejoin="round" stroke-linecap="butt" stroke-dasharray="4.0,3.0" d="M556.667 562.063v-88.252"/><path fill="#f90" d="M552.753 125.005h12.914v20.977h-12.914z" fill-rule="evenodd"/><path stroke="#000" stroke-linejoin="round" stroke-linecap="butt" d="M552.753 125.005h12.914v20.977h-12.914z"/><path fill="none" d="M356.654 125.924h200.66"/><path stroke="#000" stroke-linejoin="round" stroke-linecap="butt" d="M356.654 125.924h194.66"/><path fill="#000" stroke="#000" stroke-linecap="butt" d="M551.315 127.576l4.538-1.652-4.538-1.652z" fill-rule="evenodd"/><path fill="#a4c2f4" d="M762.35 219.924h12.912v16.913H762.35z" fill-rule="evenodd"/><path stroke="#000" stroke-linejoin="round" stroke-linecap="butt" d="M762.35 219.924h12.912v16.913H762.35z"/><path fill="none" d="M361.889 235.923h397.07"/><path stroke="#000" stroke-linejoin="round" stroke-linecap="butt" d="M365.316 235.923H758.96"/><path fill="#000" stroke="#000" stroke-linecap="butt" d="M365.316 235.923l1.124-1.124-3.09 1.124 3.09 1.125z" fill-rule="evenodd"/><path fill="#f90" d="M552.28 269.286h12.914v16.094h-12.913z" fill-rule="evenodd"/><path stroke="#000" stroke-linejoin="round" stroke-linecap="butt" d="M552.28 269.286h12.914v16.094h-12.913z"/><path fill="#a4c2f4" d="M762.212 514.787h12.913v16.914h-12.913z" fill-rule="evenodd"/><path stroke="#000" stroke-linejoin="round" stroke-linecap="butt" d="M762.212 514.787h12.913v16.914h-12.913z"/><path fill="none" d="M356.613 284.49h194.299"/><path stroke="#000" stroke-linejoin="round" stroke-linecap="butt" d="M360.04 284.49h190.872"/><path fill="#000" stroke="#000" stroke-linecap="butt" d="M360.04 284.49l1.125-1.124-3.09 1.125 3.09 1.124z" fill-rule="evenodd"/><path fill="none" d="M356.654 269.808h201.543"/><path stroke="#000" stroke-linejoin="round" stroke-linecap="butt" d="M356.654 269.808h195.543"/><path fill="#000" stroke="#000" stroke-linecap="butt" d="M552.197 271.46l4.538-1.652-4.538-1.651z" fill-rule="evenodd"/><path fill="#f90" d="M552.28 475.782h12.914v16.094h-12.913z" fill-rule="evenodd"/><path stroke="#000" stroke-linejoin="round" stroke-linecap="butt" d="M552.28 475.782h12.914v16.094h-12.913z"/><path fill="none" d="M356.613 490.642h194.299"/><path stroke="#000" stroke-linejoin="round" stroke-linecap="butt" d="M360.04 490.642h190.872"/><path fill="#000" stroke="#000" stroke-linecap="butt" d="M360.04 490.642l1.125-1.125-3.09 1.125 3.09 1.125z" fill-rule="evenodd"/><path fill="none" d="M356.2 474.787h202.015"/><path stroke="#000" stroke-linejoin="round" stroke-linecap="butt" d="M356.2 474.787h196.015"/><path fill="#000" stroke="#000" stroke-linecap="butt" d="M552.215 476.44l4.538-1.653-4.538-1.651z" fill-rule="evenodd"/><path fill="none" d="M361.353 530.776h397.071"/><path stroke="#000" stroke-linejoin="round" stroke-linecap="butt" d="M364.78 530.776h393.644"/><path fill="#000" stroke="#000" stroke-linecap="butt" d="M364.78 530.776l1.125-1.125-3.09 1.125 3.09 1.124z" fill-rule="evenodd"/><path fill="none" d="M160.717 111.278h189.48"/><path stroke="#000" stroke-linejoin="round" stroke-linecap="butt" d="M160.717 111.278h183.48"/><path fill="#000" stroke="#000" stroke-linecap="butt" d="M344.197 112.93l4.538-1.652-4.538-1.652z" fill-rule="evenodd"/><path fill="none" d="M163.129 460.142h186.614"/><path stroke="#000" stroke-linejoin="round" stroke-linecap="butt" d="M163.129 460.142h180.614"/><path fill="#000" stroke="#000" stroke-linecap="butt" d="M343.743 461.793l4.538-1.651-4.538-1.652z" fill-rule="evenodd"/></g></svg>